<svg width="20" height="20" viewBox="0 0 20 20" fill="none" xmlns="http://www.w3.org/2000/svg">
<g id="Clip path group">
<mask id="mask0_671_4918" style="mask-type:luminance" maskUnits="userSpaceOnUse" x="0" y="0" width="20" height="21">
<g id="clip-path">
<path id="&#236;&#130;&#172;&#234;&#176;&#129;&#237;&#152;&#149; 43355" d="M20 0.000427246H0V20.0004H20V0.000427246Z" fill="white"/>
</g>
</mask>
<g mask="url(#mask0_671_4918)">
<g id="&#234;&#183;&#184;&#235;&#163;&#185; 182815">
<path id="&#237;&#140;&#168;&#236;&#138;&#164; 92883" d="M12.2224 4.66709H7.77659C7.65863 4.66643 7.54575 4.61906 7.46266 4.53534C7.37956 4.45162 7.33303 4.33838 7.33325 4.22043V2.44209C7.33435 2.32501 7.38146 2.21305 7.46441 2.13041C7.54736 2.04777 7.6595 2.00108 7.77659 2.00043H12.2224C12.3401 2.00087 12.4528 2.0478 12.536 2.13101C12.6192 2.21421 12.6661 2.32693 12.6666 2.44459V4.22043C12.6661 4.33809 12.6192 4.45081 12.536 4.53402C12.4528 4.61722 12.3401 4.66415 12.2224 4.66459" fill="#C8C9CC"/>
<path id="&#237;&#140;&#168;&#236;&#138;&#164; 92884" d="M14.9999 2.88709H13.7758V4.12376C13.7707 4.33751 13.7235 4.54815 13.637 4.74367C13.5505 4.93919 13.4263 5.11574 13.2715 5.26325C13.1167 5.41075 12.9344 5.52631 12.735 5.60332C12.5355 5.68034 12.3228 5.7173 12.1091 5.71209H7.91658C7.48494 5.72149 7.06717 5.55943 6.75477 5.26141C6.44238 4.96339 6.26084 4.5537 6.24992 4.12209V2.88709H4.99992C4.56915 2.87679 4.15186 3.03764 3.83946 3.33442C3.52707 3.6312 3.34504 4.0397 3.33325 4.47043V16.4113C3.34417 16.8428 3.52574 17.2524 3.83816 17.5503C4.15057 17.8482 4.56835 18.0101 4.99992 18.0004H14.9999C15.4317 18.0098 15.8496 17.8477 16.162 17.5494C16.4744 17.2512 16.6559 16.8413 16.6666 16.4096V4.47959C16.6559 4.04769 16.4745 3.63762 16.1621 3.33916C15.8498 3.04069 15.4319 2.87814 14.9999 2.88709ZM9.65825 9.94709C9.29403 10.0343 8.9698 10.2417 8.73785 10.5357C8.5059 10.8298 8.37976 11.1934 8.37976 11.5679C8.37976 11.9425 8.5059 12.3061 8.73785 12.6001C8.9698 12.8942 9.29403 13.1015 9.65825 13.1888V15.3179C8.73185 15.2201 7.87442 14.7829 7.25125 14.0905C6.62807 13.3981 6.28325 12.4995 6.28325 11.5679C6.28325 10.6364 6.62807 9.73779 7.25125 9.04537C7.87442 8.35295 8.73185 7.91571 9.65825 7.81793V9.94709ZM10.4083 15.3179V13.1888C10.7116 13.1182 10.9891 12.9641 11.2092 12.7439C11.4294 12.5237 11.5835 12.2462 11.6541 11.9429H13.7833C13.7116 12.8141 13.333 13.6315 12.7149 14.2496C12.0968 14.8677 11.2794 15.2463 10.4083 15.3179ZM11.6541 11.1929C11.5835 10.8896 11.4294 10.6121 11.2092 10.3919C10.9891 10.1717 10.7116 10.0176 10.4083 9.94709V7.81793C11.2793 7.88976 12.0967 8.26841 12.7147 8.88646C13.3328 9.50451 13.7114 10.3218 13.7833 11.1929H11.6541Z" fill="#C8C9CC"/>
</g>
</g>
</g>
</svg>
