<svg width="18" height="18" viewBox="0 0 18 18" fill="none" xmlns="http://www.w3.org/2000/svg">
<g id="_2021" clip-path="url(#clip0_1148_17065)">
<g id="Group">
<path id="Exclude" fill-rule="evenodd" clip-rule="evenodd" d="M12.3975 2.25H13.4925C14.3175 2.25 14.9925 2.9175 14.9925 3.75V15C14.9925 15.825 14.3175 16.5 13.4925 16.5H4.5C3.675 16.5 3 15.825 3 15V3.75C3 2.9175 3.675 2.25 4.5 2.25H5.625V3.4125C5.625 4.2375 6.3 4.9125 7.125 4.9125H10.8975C11.73 4.9125 12.3975 4.2375 12.3975 3.4125V2.25ZM11.3513 7.5L7.9966 10.7449L6.64874 9.44117L6 10.0687L7.9966 12L12 8.12753L11.3513 7.5Z" fill="#004EA2"/>
<path id="Vector" d="M10.965 1.5H7.035C6.8776 1.5 6.75 1.6276 6.75 1.785V3.465C6.75 3.6224 6.8776 3.75 7.035 3.75H10.965C11.1224 3.75 11.25 3.6224 11.25 3.465V1.785C11.25 1.6276 11.1224 1.5 10.965 1.5Z" fill="#004EA2"/>
</g>
</g>
<defs>
<clipPath id="clip0_1148_17065">
<rect width="18" height="18" fill="white"/>
</clipPath>
</defs>
</svg>
