<svg width="20" height="20" viewBox="0 0 20 20" fill="none" xmlns="http://www.w3.org/2000/svg">
<g id="Frame 180318">
<path id="box" d="M15.6809 1.99902H4.31787C3.70383 2.00139 3.11584 2.24647 2.68164 2.68066C2.24744 3.11486 2.00237 3.7031 2 4.31714V15.6801C2.00237 16.2941 2.24744 16.8823 2.68164 17.3165C3.11584 17.7507 3.70383 17.9957 4.31787 17.998H15.6819C16.2959 17.9957 16.8842 17.7507 17.3184 17.3165C17.7526 16.8823 17.9976 16.2941 18 15.6801V4.31714C17.9976 3.70292 17.7525 3.11452 17.3181 2.6803C16.8837 2.24607 16.2951 2.00113 15.6809 1.99902Z" fill="#004EA2"/>
<path id="Vector (Stroke)" fill-rule="evenodd" clip-rule="evenodd" d="M8.26433 11.4837L13.749 5.99902L14.8097 7.05968L8.26433 13.605L5 10.3407L6.06066 9.28002L8.26433 11.4837Z" fill="white"/>
</g>
</svg>
