<svg width="24" height="24" viewBox="0 0 24 24" fill="none" xmlns="http://www.w3.org/2000/svg">
<path d="M16.35 17.15C16.35 18.0353 16.35 18.4779 16.2054 18.8271C16.0125 19.2927 15.6427 19.6625 15.1771 19.8554C14.8279 20 14.3853 20 13.5 20H7.04C5.9759 20 5.44385 20 5.03742 19.7929C4.67991 19.6108 4.38925 19.3201 4.20709 18.9626C4 18.5561 4 18.0241 4 16.96L4 10.5C4 9.61471 4 9.17207 4.14463 8.8229C4.33747 8.35735 4.70735 7.98747 5.1729 7.79463C5.52207 7.65 5.96471 7.65 6.85 7.65M20 13.31V7.04C20 5.9759 20 5.44385 19.7929 5.03742C19.6108 4.67991 19.3201 4.38925 18.9626 4.20709C18.5561 4 18.0241 4 16.96 4H10.69C9.6259 4 9.09385 4 8.68742 4.20709C8.32991 4.38925 8.03925 4.67991 7.85709 5.03742C7.65 5.44385 7.65 5.9759 7.65 7.04L7.65 13.31C7.65 14.3741 7.65 14.9061 7.85709 15.3126C8.03925 15.6701 8.32991 15.9608 8.68742 16.1429C9.09385 16.35 9.6259 16.35 10.69 16.35H16.96C18.0241 16.35 18.5561 16.35 18.9626 16.1429C19.3201 15.9608 19.6108 15.6701 19.7929 15.3126C20 14.9061 20 14.3741 20 13.31Z" stroke="white" stroke-opacity="0.87" stroke-width="2" stroke-linecap="round" stroke-linejoin="round"/>
</svg>
