<svg width="20" height="20" viewBox="0 0 20 20" fill="none" xmlns="http://www.w3.org/2000/svg">
<g id="&#234;&#183;&#184;&#235;&#163;&#185; 181272">
<g id="Clip path group">
<mask id="mask0_646_6119" style="mask-type:luminance" maskUnits="userSpaceOnUse" x="0" y="0" width="20" height="20">
<g id="clip-path">
<path id="&#236;&#130;&#172;&#234;&#176;&#129;&#237;&#152;&#149; 42431" d="M20 0H0V20H20V0Z" fill="white"/>
</g>
</mask>
<g mask="url(#mask0_646_6119)">
<g id="&#234;&#183;&#184;&#235;&#163;&#185; 181271">
<path id="&#237;&#140;&#168;&#236;&#138;&#164; 92594" d="M9.16667 2.5H3.125C2.95924 2.5 2.80027 2.56585 2.68306 2.68306C2.56585 2.80027 2.5 2.95924 2.5 3.125V16.875C2.5 17.0408 2.56585 17.1997 2.68306 17.3169C2.80027 17.4342 2.95924 17.5 3.125 17.5H9.16667V2.5Z" fill="#C8C9CC"/>
<path id="Union" d="M10.625 2.5H16.875C17.0408 2.5 17.1997 2.56585 17.3169 2.68306C17.4342 2.80027 17.5 2.95924 17.5 3.125V9.16667H10.625V2.5Z" fill="#C8C9CC"/>
<path id="Union_2" d="M10.625 10.625H17.5V16.875C17.5 17.0408 17.4342 17.1997 17.3169 17.3169C17.1997 17.4342 17.0408 17.5 16.875 17.5H10.625V10.625Z" fill="#C8C9CC"/>
</g>
</g>
</g>
</g>
</svg>
