<svg width="16" height="16" viewBox="0 0 16 16" fill="none" xmlns="http://www.w3.org/2000/svg">
<g id="download_bk_16">
<path id="Union" d="M8 2C8.32329 2 8.58537 2.24702 8.58537 2.55172V8.1163L11.0007 5.83976C11.2293 5.6243 11.5999 5.6243 11.8285 5.83976C12.0571 6.05522 12.0571 6.40455 11.8285 6.62001L8.41392 9.8384C8.18532 10.0539 7.81468 10.0539 7.58608 9.8384L4.17145 6.62001C3.94285 6.40455 3.94285 6.05522 4.17145 5.83976C4.40005 5.6243 4.77068 5.6243 4.99928 5.83976L7.41463 8.1163V2.55172C7.41463 2.24702 7.67671 2 8 2Z" fill="white" fill-opacity="0.87"/>
<path id="Vector 2 (Stroke)" fill-rule="evenodd" clip-rule="evenodd" d="M2.5 10C2.77614 10 3 10.2239 3 10.5V13H13V10.5C13 10.2239 13.2239 10 13.5 10C13.7761 10 14 10.2239 14 10.5V13C14 13.5523 13.5523 14 13 14H3C2.44772 14 2 13.5523 2 13V10.5C2 10.2239 2.22386 10 2.5 10Z" fill="white" fill-opacity="0.87"/>
</g>
</svg>
