<svg width="24" height="24" viewBox="0 0 24 24" fill="none" xmlns="http://www.w3.org/2000/svg">
<g id="edit_pencil_fff_24">
<g id="Vector">
<path d="M13.5163 6.32659L4.21656 15.6269C4.0941 15.7468 4.00738 15.8985 3.96606 16.0649L3.02559 19.83C3.0076 19.9041 2.99903 19.9802 3.00009 20.0565C2.99969 20.1802 3.02373 20.3029 3.07081 20.4173C3.1179 20.5318 3.18711 20.6358 3.27448 20.7235C3.36185 20.8111 3.46566 20.8807 3.57996 20.9281C3.69426 20.9756 3.81681 21 3.94056 21C4.01688 20.9988 4.09283 20.9893 4.16706 20.9715L7.93196 20.0295C8.09798 19.9881 8.24946 19.9019 8.36995 19.7805L17.6697 10.4802L13.5163 6.32659Z" fill="white"/>
<path d="M20.1412 3.86036C19.5902 3.30947 18.8429 3 18.0637 3C17.2846 3 16.5373 3.30947 15.9863 3.86036L14.5793 5.2674L18.7342 9.42251L20.1397 8.01697C20.6905 7.46591 21 6.71861 21 5.93941C21 5.16022 20.6905 4.41292 20.1397 3.86186" fill="white"/>
</g>
</g>
</svg>
