<svg width="16" height="16" viewBox="0 0 16 16" fill="none" xmlns="http://www.w3.org/2000/svg">
<g opacity="0.5">
<path fill-rule="evenodd" clip-rule="evenodd" d="M8 7C7.44772 7 7 7.44772 7 8C7 8.55228 7.44772 9 8 9C8.55228 9 9 8.55228 9 8C9 7.44772 8.55228 7 8 7ZM5 8C5 6.34315 6.34315 5 8 5C9.65685 5 11 6.34315 11 8C11 9.65685 9.65685 11 8 11C6.34315 11 5 9.65685 5 8ZM8.00046 2.5332C6.05146 2.5332 4.4669 3.39482 3.29953 4.36912C2.13403 5.34186 1.33638 6.46519 0.93721 7.09724L0.920445 7.12365C0.842264 7.2465 0.729016 7.42446 0.672233 7.67219C0.626183 7.8731 0.626183 8.12664 0.672233 8.32755C0.729016 8.57528 0.842264 8.75324 0.920445 8.87609L0.93721 8.9025C1.33638 9.53455 2.13403 10.6579 3.29953 11.6306C4.4669 12.6049 6.05146 13.4665 8.00046 13.4665C9.94947 13.4665 11.534 12.6049 12.7014 11.6306C13.8669 10.6579 14.6645 9.53455 15.0637 8.9025L15.0805 8.87609L15.0805 8.87608C15.1587 8.75323 15.2719 8.57527 15.3287 8.32755C15.3747 8.12664 15.3747 7.8731 15.3287 7.67219C15.2719 7.42447 15.1587 7.24651 15.0805 7.12366L15.0805 7.12365L15.0637 7.09724C14.6645 6.46519 13.8669 5.34186 12.7014 4.36912C11.534 3.39482 9.94947 2.5332 8.00046 2.5332Z" fill="white" fill-opacity="0.87"/>
</g>
</svg>
