<svg width="18" height="18" viewBox="0 0 18 18" fill="none" xmlns="http://www.w3.org/2000/svg">
<path fill-rule="evenodd" clip-rule="evenodd" d="M9.0004 2.85059C6.80777 2.85059 5.02514 3.8199 3.71185 4.916C2.40066 6.01033 1.5033 7.27407 1.05424 7.98513L1.03538 8.01483C0.947425 8.15304 0.820021 8.35325 0.75614 8.63195C0.704334 8.85797 0.704334 9.1432 0.75614 9.36922C0.820021 9.64792 0.947425 9.84813 1.03538 9.98634L1.05424 10.016C1.50331 10.7271 2.40066 11.9908 3.71185 13.0852C5.02514 14.1813 6.80777 15.1506 9.0004 15.1506C11.193 15.1506 12.9757 14.1813 14.289 13.0852C15.6001 11.9908 16.4975 10.7271 16.9466 10.016L16.9654 9.98633L16.9654 9.98631C17.0534 9.8481 17.1808 9.6479 17.2447 9.36922C17.2965 9.1432 17.2965 8.85797 17.2447 8.63195C17.1808 8.35325 17.0534 8.15304 16.9654 8.01484L16.9466 7.98512C16.4975 7.27407 15.6001 6.01033 14.289 4.916C12.9757 3.8199 11.193 2.85059 9.0004 2.85059ZM9 7.75C8.30964 7.75 7.75 8.30964 7.75 9C7.75 9.69036 8.30964 10.25 9 10.25C9.69036 10.25 10.25 9.69036 10.25 9C10.25 8.30964 9.69036 7.75 9 7.75ZM5.75 9C5.75 7.20507 7.20507 5.75 9 5.75C10.7949 5.75 12.25 7.20507 12.25 9C12.25 10.7949 10.7949 12.25 9 12.25C7.20507 12.25 5.75 10.7949 5.75 9Z" fill="#004EA2"/>
</svg>
