<svg width="24" height="24" viewBox="0 0 24 24" fill="none" xmlns="http://www.w3.org/2000/svg">
<path d="M18.36 6.88268L15.5712 4.12293C15.0524 3.60683 14.4354 3.19765 13.7558 2.91908C13.0762 2.64051 12.3476 2.49808 11.612 2.50002H7.99999C6.93952 2.50128 5.92284 2.91872 5.17297 3.66078C4.42311 4.40283 4.00127 5.40892 4 6.45835V17.5417C4.00127 18.5911 4.42311 19.5972 5.17297 20.3392C5.92284 21.0813 6.93952 21.4987 7.99999 21.5H16C17.0605 21.4987 18.0771 21.0813 18.827 20.3392C19.5769 19.5972 19.9987 18.5911 20 17.5417V10.8006C20.0019 10.0727 19.858 9.35163 19.5765 8.67912C19.295 8.00661 18.8815 7.39602 18.36 6.88268ZM17.2288 8.0021C17.4728 8.251 17.6829 8.53046 17.8536 8.83335H14.4C14.1878 8.83335 13.9843 8.74994 13.8343 8.60147C13.6843 8.45301 13.6 8.25164 13.6 8.04168V4.62406C13.9061 4.79299 14.1885 5.00085 14.44 5.24235L17.2288 8.0021ZM18.4 17.5417C18.4 18.1716 18.1471 18.7757 17.697 19.221C17.247 19.6664 16.6365 19.9167 16 19.9167H7.99999C7.36348 19.9167 6.75303 19.6664 6.30294 19.221C5.85285 18.7757 5.6 18.1716 5.6 17.5417V6.45835C5.6 5.82846 5.85285 5.22437 6.30294 4.77897C6.75303 4.33357 7.36348 4.08335 7.99999 4.08335H11.612C11.744 4.08335 11.8704 4.10868 12 4.12056V8.04168C12 8.67157 12.2528 9.27566 12.7029 9.72106C13.153 10.1665 13.7635 10.4167 14.4 10.4167H18.3624C18.3744 10.5449 18.4 10.67 18.4 10.8006V17.5417ZM15.7792 13.0379C15.9253 13.19 16.0044 13.3932 15.9991 13.6029C15.9939 13.8127 15.9047 14.0118 15.7512 14.1565L12.88 16.8593C12.4287 17.2989 11.8201 17.5441 11.1868 17.5416C10.5535 17.5391 9.94693 17.289 9.49919 16.8458L8.26719 15.758C8.1087 15.6182 8.01283 15.4218 8.00068 15.212C7.99466 15.1081 8.00938 15.0041 8.04399 14.9059C8.0786 14.8076 8.13243 14.7171 8.20239 14.6394C8.27236 14.5618 8.3571 14.4985 8.45178 14.4532C8.54645 14.408 8.64921 14.3816 8.75417 14.3757C8.96616 14.3637 9.1743 14.4355 9.33279 14.5753L10.6008 15.6947C10.6734 15.7754 10.7619 15.8405 10.8609 15.8861C10.9598 15.9316 11.0672 15.9566 11.1763 15.9596C11.2854 15.9626 11.394 15.9434 11.4953 15.9033C11.5967 15.8632 11.6886 15.803 11.7656 15.7264L14.6456 13.0102C14.7217 12.9381 14.8115 12.8817 14.9098 12.844C15.0081 12.8064 15.1129 12.7884 15.2182 12.7909C15.3235 12.7935 15.4273 12.8167 15.5236 12.859C15.6199 12.9014 15.7067 12.9622 15.7792 13.0379Z" fill="white" fill-opacity="0.87"/>
</svg>
