<svg width="16" height="16" viewBox="0 0 16 16" fill="none" xmlns="http://www.w3.org/2000/svg">
<path d="M12.77 4.22934L10.6784 2.19585C10.2893 1.81556 9.82657 1.51406 9.31688 1.3088C8.80719 1.10353 8.26068 0.998582 7.70899 1.00001H5C4.20464 1.00094 3.44213 1.30853 2.87973 1.85531C2.31733 2.40209 2.00095 3.14342 2 3.91668V12.0833C2.00095 12.8566 2.31733 13.5979 2.87973 14.1447C3.44213 14.6915 4.20464 14.9991 5 15H11C11.7953 14.9991 12.5579 14.6915 13.1203 14.1447C13.6827 13.5979 13.999 12.8566 14 12.0833V7.11626C14.0015 6.57989 13.8935 6.04857 13.6824 5.55303C13.4713 5.0575 13.1611 4.60759 12.77 4.22934ZM11.9216 5.05418C12.1046 5.23758 12.2622 5.4435 12.3902 5.66668H9.79999C9.64086 5.66668 9.48825 5.60522 9.37573 5.49582C9.26321 5.38643 9.19999 5.23805 9.19999 5.08334V2.5651C9.42954 2.68957 9.64135 2.84273 9.82999 3.02068L11.9216 5.05418ZM12.8 12.0833C12.8 12.5475 12.6103 12.9926 12.2728 13.3208C11.9352 13.649 11.4774 13.8333 11 13.8333H5C4.52261 13.8333 4.06477 13.649 3.72721 13.3208C3.38964 12.9926 3.2 12.5475 3.2 12.0833V3.91668C3.2 3.45255 3.38964 3.00743 3.72721 2.67924C4.06477 2.35105 4.52261 2.16668 5 2.16668H7.70899C7.80799 2.16668 7.90279 2.18535 7.99999 2.1941V5.08334C7.99999 5.54747 8.18963 5.99259 8.5272 6.32078C8.86476 6.64897 9.3226 6.83334 9.79999 6.83334H12.7718C12.7808 6.92784 12.8 7.02001 12.8 7.11626V12.0833ZM10.8344 8.76476C10.9439 8.87681 11.0033 9.02656 10.9993 9.18111C10.9954 9.33566 10.9285 9.48237 10.8134 9.58901L8.65999 11.5805C8.3215 11.9044 7.86504 12.0851 7.39009 12.0833C6.91514 12.0814 6.4602 11.8971 6.12439 11.5706L5.2004 10.7691C5.08153 10.6661 5.00963 10.5213 5.00051 10.3667C4.996 10.2902 5.00704 10.2136 5.03299 10.1412C5.05895 10.0688 5.09932 10.0021 5.1518 9.94484C5.20427 9.88761 5.26783 9.841 5.33883 9.80766C5.40984 9.77431 5.4869 9.75489 5.56563 9.75051C5.72462 9.74164 5.88073 9.79455 5.9996 9.89759L6.95059 10.7224C7.00504 10.7819 7.07141 10.8298 7.14564 10.8634C7.21987 10.897 7.30037 10.9154 7.38221 10.9176C7.46404 10.9198 7.54547 10.9057 7.62148 10.8761C7.69749 10.8466 7.76648 10.8022 7.82419 10.7458L9.98419 8.74434C10.0413 8.69125 10.1086 8.64964 10.1823 8.62192C10.256 8.5942 10.3347 8.58091 10.4137 8.58281C10.4927 8.5847 10.5705 8.60175 10.6427 8.63298C10.7149 8.6642 10.78 8.70899 10.8344 8.76476Z" fill="white"/>
</svg>
