<svg width="20" height="20" viewBox="0 0 20 20" fill="none" xmlns="http://www.w3.org/2000/svg">
<g clip-path="url(#clip0_720_4961)">
<path fill-rule="evenodd" clip-rule="evenodd" d="M13.7749 2.50043H14.9916C15.9083 2.50043 16.6583 3.24209 16.6583 4.16709V16.6671C16.6583 17.5838 15.9083 18.3338 14.9916 18.3338H4.99992C4.08325 18.3338 3.33325 17.5838 3.33325 16.6671V4.16709C3.33325 3.24209 4.08325 2.50043 4.99992 2.50043H6.24992V3.79209C6.24992 4.70876 6.99992 5.45876 7.91658 5.45876H12.1083C13.0333 5.45876 13.7749 4.70876 13.7749 3.79209V2.50043ZM12.6124 8.33376L8.88503 11.9393L7.38741 10.4906L6.66659 11.1879L8.88503 13.3338L13.3333 9.03101L12.6124 8.33376Z" fill="#84C01D"/>
<path d="M12.1833 1.6671H7.81667C7.64178 1.6671 7.5 1.80888 7.5 1.98377V3.85043C7.5 4.02532 7.64178 4.1671 7.81667 4.1671H12.1833C12.3582 4.1671 12.5 4.02532 12.5 3.85043V1.98377C12.5 1.80888 12.3582 1.6671 12.1833 1.6671Z" fill="#84C01D"/>
</g>
<defs>
<clipPath id="clip0_720_4961">
<rect width="20" height="20" fill="white" transform="translate(0 0.000427246)"/>
</clipPath>
</defs>
</svg>
