<svg width="18" height="13" viewBox="0 0 18 13" fill="none" xmlns="http://www.w3.org/2000/svg">
<path d="M17.5 0.714233H0.5V12.7142H17.5V0.714233Z" fill="white"/>
<path d="M8.99486 3.85901C8.41422 3.8591 7.84692 4.03319 7.36617 4.35881C6.88542 4.68444 6.51327 5.14666 6.29774 5.68584C6.25593 5.89047 6.25494 6.10133 6.29482 6.30634C6.3347 6.51135 6.41467 6.70646 6.53015 6.88049C6.6579 7.04641 6.82128 7.18152 7.00823 7.27585C7.19517 7.37018 7.40092 7.42133 7.61027 7.42552C8.03133 7.42949 8.44118 7.28993 8.77232 7.02982C9.00473 6.8526 9.20286 6.62947 9.44864 6.47026C9.7304 6.28825 10.0618 6.1983 10.3969 6.21286C10.597 6.21736 10.7929 6.27104 10.9674 6.36916C11.1277 6.47575 11.2631 6.61562 11.3645 6.77926C11.4659 6.9429 11.5308 7.12646 11.5549 7.31744C11.5934 7.58609 11.5959 7.85869 11.5624 8.12801C11.7977 7.68535 11.9145 7.18933 11.9014 6.68818C11.8882 6.18704 11.7456 5.69781 11.4875 5.26808C11.2293 4.83835 10.8644 4.48274 10.4281 4.23583C9.9918 3.98892 9.49906 3.8591 8.99776 3.85901" fill="#CD2E3A"/>
<path d="M11.5519 7.31665C11.5278 7.12576 11.4629 6.94229 11.3616 6.77868C11.2604 6.61507 11.1251 6.47514 10.9651 6.36837C10.7901 6.27086 10.5941 6.21723 10.3939 6.21207C10.06 6.19824 9.72994 6.28816 9.44917 6.46948C9.20339 6.62868 9.00643 6.85181 8.77285 7.02903C8.44172 7.28914 8.03186 7.42871 7.6108 7.42473C7.40146 7.4205 7.19573 7.36934 7.00879 7.27501C6.82185 7.18068 6.65846 7.04559 6.53068 6.8797C6.30005 6.53347 6.21529 6.11025 6.29478 5.7019C6.15867 6.03921 6.0894 6.39976 6.09084 6.76349C6.0918 7.41096 6.309 8.03956 6.70796 8.54949C7.10693 9.05942 7.66479 9.42146 8.29299 9.57814C8.92119 9.73481 9.58372 9.67714 10.1754 9.41427C10.7671 9.15141 11.254 8.69842 11.5589 8.12722C11.5921 7.8569 11.5894 7.58335 11.5507 7.31375" fill="#0047A0"/>
<path d="M5.62356 2.79605L4.0127 5.14832L4.40432 5.41653L6.01519 3.06427L5.62356 2.79605Z" fill="black"/>
<path d="M5.11708 2.44921L3.50586 4.80078L3.89745 5.06911L5.50867 2.71754L5.11708 2.44921Z" fill="black"/>
<path d="M4.61122 2.10228L3 4.45386L3.39159 4.72219L5.00281 2.37061L4.61122 2.10228Z" fill="black"/>
<path d="M13.6504 9.98092L12.9131 11.057L13.3052 11.3257L14.0425 10.2496L13.6504 9.98092Z" fill="black"/>
<path d="M13.1445 9.63403L12.4072 10.7107L12.7989 10.9789L13.5362 9.90225L13.1445 9.63403Z" fill="black"/>
<path d="M12.638 9.28659L11.9004 10.3632L12.292 10.6315L13.0296 9.55492L12.638 9.28659Z" fill="black"/>
<path d="M14.5645 8.63635L13.8271 9.71301L14.2188 9.98123L14.9561 8.90457L14.5645 8.63635Z" fill="black"/>
<path d="M14.0576 8.28951L13.3203 9.3656L13.7119 9.63393L14.4492 8.55784L14.0576 8.28951Z" fill="black"/>
<path d="M13.5508 7.94201L12.8135 9.01868L13.2051 9.28689L13.9424 8.21023L13.5508 7.94201Z" fill="black"/>
<path d="M4.47037 7.91597L4.06543 8.16455L5.55625 10.5933L5.96118 10.3447L4.47037 7.91597Z" fill="black"/>
<path d="M4.83083 9.67639L4.42578 9.92505L5.03341 10.9149L5.43846 10.6663L4.83083 9.67639Z" fill="black"/>
<path d="M3.94704 8.23719L3.54199 8.48584L4.29855 9.71839L4.70361 9.46973L3.94704 8.23719Z" fill="black"/>
<path d="M3.42349 8.55867L3.01855 8.80725L4.50937 11.236L4.91431 10.9874L3.42349 8.55867Z" fill="black"/>
<path d="M14.3015 3.51146L13.8965 3.76013L14.5789 4.87182L14.984 4.62315L14.3015 3.51146Z" fill="black"/>
<path d="M13.2547 4.15404L12.8496 4.40271L13.5321 5.5144L13.9371 5.26573L13.2547 4.15404Z" fill="black"/>
<path d="M13.4451 2.12975L13.04 2.37842L13.7225 3.49011L14.1275 3.24144L13.4451 2.12975Z" fill="black"/>
<path d="M12.9215 2.45051L12.5166 2.6991L14.0494 5.19617L14.4543 4.94758L12.9215 2.45051Z" fill="black"/>
<path d="M12.3992 2.77184L11.9941 3.02051L12.6766 4.1322L13.0816 3.88353L12.3992 2.77184Z" fill="black"/>
</svg>
