<svg width="16" height="16" viewBox="0 0 16 16" fill="none" xmlns="http://www.w3.org/2000/svg">
<path d="M13.6667 4.00049L2.66675 4.00049M6.66699 7.00049V11.0005M9.66699 7.00049V11.0005M12.667 4.00049V13.5005C12.667 13.6331 12.6143 13.7603 12.5205 13.854C12.4268 13.9478 12.2996 14.0005 12.167 14.0005H4.16699C4.03438 14.0005 3.90721 13.9478 3.81344 13.854C3.71967 13.7603 3.66699 13.6331 3.66699 13.5005V4.00049M10.667 4.00049V3.00049C10.667 2.73527 10.5616 2.48092 10.3741 2.29338C10.1866 2.10585 9.93221 2.00049 9.66699 2.00049H6.66699C6.40178 2.00049 6.14742 2.10585 5.95989 2.29338C5.77235 2.48092 5.66699 2.73527 5.66699 3.00049V4.00049" stroke="black" stroke-opacity="0.8" stroke-linecap="round" stroke-linejoin="round"/>
</svg>
