<svg width="16" height="16" viewBox="0 0 16 16" fill="none" xmlns="http://www.w3.org/2000/svg">
<g id="globe-02" clip-path="url(#clip0_960_20888)">
<path id="Icon" d="M7.99967 1.33398C9.66719 3.15955 10.6148 5.52867 10.6663 8.00065C10.6148 10.4726 9.66719 12.8417 7.99967 14.6673M7.99967 1.33398C6.33215 3.15955 5.38451 5.52867 5.33301 8.00065C5.38451 10.4726 6.33215 12.8417 7.99967 14.6673M7.99967 1.33398C4.31778 1.33398 1.33301 4.31875 1.33301 8.00065C1.33301 11.6826 4.31778 14.6673 7.99967 14.6673M7.99967 1.33398C11.6816 1.33398 14.6663 4.31875 14.6663 8.00065C14.6663 11.6826 11.6816 14.6673 7.99967 14.6673M1.66635 6.00065H14.333M1.66634 10.0007H14.333" stroke="white" stroke-opacity="0.87" stroke-linecap="round" stroke-linejoin="round"/>
</g>
<defs>
<clipPath id="clip0_960_20888">
<rect width="16" height="16" fill="white"/>
</clipPath>
</defs>
</svg>
