<svg width="14" height="14" viewBox="0 0 14 14" fill="none" xmlns="http://www.w3.org/2000/svg">
<g id="home_fff_16">
<path id="&#237;&#140;&#168;&#236;&#138;&#164; 91016" d="M12.3607 6.42742L7.91077 2.11439C7.66447 1.88038 7.33849 1.75 6.99967 1.75C6.66085 1.75 6.33487 1.88038 6.08857 2.11439L1.63928 6.42742C1.4998 6.5341 1.39756 6.68255 1.3473 6.85139C1.29703 7.02023 1.30132 7.20076 1.35955 7.36699C1.43634 7.53202 1.56312 7.66835 1.72169 7.75644C1.88027 7.84453 2.06251 7.87986 2.24228 7.85735H2.8532V11.7298C2.8532 11.8678 2.9077 12.0001 3.0047 12.0976C3.1017 12.1952 3.23326 12.25 3.37044 12.25H5.9652V8.76906H8.03414V12.25H10.6223C10.7593 12.25 10.8906 12.1954 10.9876 12.0981C11.0845 12.0008 11.1392 11.8689 11.1395 11.7311L11.1461 7.85735H11.7571C11.9369 7.88 12.1193 7.84475 12.278 7.75665C12.4367 7.66855 12.5636 7.53214 12.6404 7.36699C12.6987 7.20076 12.703 7.02023 12.6527 6.85139C12.6024 6.68255 12.5002 6.5341 12.3607 6.42742Z" fill="white" fill-opacity="0.87"/>
</g>
</svg>
