<svg width="20" height="20" viewBox="0 0 20 20" fill="none" xmlns="http://www.w3.org/2000/svg">
<g id="key_wh_18">
<path id="Vector" d="M10.5418 8.33382C10.1985 7.35922 9.56128 6.51517 8.71795 5.91812C7.87462 5.32107 6.86678 5.00045 5.8335 5.00049C3.07516 5.00049 0.833496 7.24215 0.833496 10.0005C0.833496 12.7588 3.07516 15.0005 5.8335 15.0005C6.86678 15.0005 7.87462 14.6799 8.71795 14.0829C9.56128 13.4858 10.1985 12.6418 10.5418 11.6672H14.1668V15.0005H17.5002V11.6672H19.1668V8.33382H10.5418ZM5.8335 11.6672C4.91683 11.6672 4.16683 10.9172 4.16683 10.0005C4.16683 9.08382 4.91683 8.33382 5.8335 8.33382C6.75016 8.33382 7.50016 9.08382 7.50016 10.0005C7.50016 10.9172 6.75016 11.6672 5.8335 11.6672Z" fill="white"/>
</g>
</svg>
