<svg width="20" height="20" viewBox="0 0 20 20" fill="none" xmlns="http://www.w3.org/2000/svg">
<mask id="path-1-inside-1_1213_23662" fill="white">
<path fill-rule="evenodd" clip-rule="evenodd" d="M9.99967 17.5673C13.333 15.4461 16.6663 12.0286 16.6663 8.4932C16.6663 5.36916 13.6816 2.01172 9.99967 2.01172C6.31778 2.01172 3.33301 5.36916 3.33301 8.4932C3.33301 12.0286 6.66634 15.4461 9.99967 17.5673ZM9.99859 10.3494C11.2259 10.3494 12.2208 9.35447 12.2208 8.12717C12.2208 6.89987 11.2259 5.90495 9.99859 5.90495C8.77129 5.90495 7.77637 6.89987 7.77637 8.12717C7.77637 9.35447 8.77129 10.3494 9.99859 10.3494Z"/>
</mask>
<path fill-rule="evenodd" clip-rule="evenodd" d="M9.99967 17.5673C13.333 15.4461 16.6663 12.0286 16.6663 8.4932C16.6663 5.36916 13.6816 2.01172 9.99967 2.01172C6.31778 2.01172 3.33301 5.36916 3.33301 8.4932C3.33301 12.0286 6.66634 15.4461 9.99967 17.5673ZM9.99859 10.3494C11.2259 10.3494 12.2208 9.35447 12.2208 8.12717C12.2208 6.89987 11.2259 5.90495 9.99859 5.90495C8.77129 5.90495 7.77637 6.89987 7.77637 8.12717C7.77637 9.35447 8.77129 10.3494 9.99859 10.3494Z" fill="white" fill-opacity="0.87"/>
<path d="M9.99967 17.5673L9.4628 18.4109L9.99967 18.7526L10.5365 18.4109L9.99967 17.5673ZM15.6663 8.4932C15.6663 9.94771 14.9755 11.4701 13.8023 12.9356C12.6365 14.3919 11.0602 15.7071 9.4628 16.7236L10.5365 18.4109C12.2725 17.3063 14.0295 15.8521 15.3637 14.1855C16.6905 12.5281 17.6663 10.574 17.6663 8.4932H15.6663ZM9.99967 3.01172C11.53 3.01172 12.9498 3.71078 13.9998 4.78122C15.0573 5.85918 15.6663 7.23837 15.6663 8.4932H17.6663C17.6663 6.62399 16.783 4.76245 15.4276 3.38067C14.0648 1.99138 12.1513 1.01172 9.99967 1.01172V3.01172ZM4.33301 8.4932C4.33301 7.23837 4.94209 5.85918 5.9995 4.78122C7.04954 3.71078 8.46936 3.01172 9.99967 3.01172V1.01172C7.84809 1.01172 5.93457 1.99138 4.57175 3.38067C3.21631 4.76245 2.33301 6.62399 2.33301 8.4932H4.33301ZM10.5365 16.7236C8.93914 15.7071 7.36285 14.3919 6.197 12.9356C5.02384 11.4701 4.33301 9.94771 4.33301 8.4932H2.33301C2.33301 10.574 3.30884 12.5281 4.63568 14.1855C5.96983 15.8521 7.72688 17.3063 9.4628 18.4109L10.5365 16.7236ZM11.2208 8.12717C11.2208 8.80219 10.6736 9.34939 9.99859 9.34939V11.3494C11.7782 11.3494 13.2208 9.90675 13.2208 8.12717H11.2208ZM9.99859 6.90495C10.6736 6.90495 11.2208 7.45216 11.2208 8.12717H13.2208C13.2208 6.34759 11.7782 4.90495 9.99859 4.90495V6.90495ZM8.77637 8.12717C8.77637 7.45216 9.32358 6.90495 9.99859 6.90495V4.90495C8.21901 4.90495 6.77637 6.34759 6.77637 8.12717H8.77637ZM9.99859 9.34939C9.32358 9.34939 8.77637 8.80218 8.77637 8.12717H6.77637C6.77637 9.90675 8.21901 11.3494 9.99859 11.3494V9.34939Z" fill="white" fill-opacity="0.87" mask="url(#path-1-inside-1_1213_23662)"/>
</svg>
