<svg width="96" height="30" viewBox="0 0 96 30" fill="none" xmlns="http://www.w3.org/2000/svg">
<g id="dark">
<g id="Group">
<path id="Vector" d="M32.2078 9.07169V28.8935H27.958V9.07169H32.2078ZM32.3509 18.851L39.9507 9.07169H45.5018L37.219 18.851L45.1096 28.8935H39.5447L32.3509 18.851Z" fill="white"/>
<path id="Vector_2" d="M47.5688 28.8981V9.07169H51.8187V28.8935H47.5688V28.8981Z" fill="white"/>
<path id="Vector_3" d="M55.792 28.8981V25.3844H64.8454C66.3035 25.3844 67.2818 25.2412 67.7617 24.9411C68.463 24.521 68.8137 23.893 68.8137 23.0434C68.8137 22.0738 68.403 21.3628 67.5909 20.9103C67.1203 20.6609 66.3773 20.527 65.3576 20.527H61.6799C59.4374 20.527 57.8269 20.1207 56.8349 19.3173C56.2211 18.8048 55.7366 18.1584 55.3906 17.3827C55.0399 16.6024 54.8691 15.7805 54.8691 14.8986C54.8691 13.5088 55.2752 12.2437 56.0873 11.094C56.881 9.9859 58.1546 9.33949 59.8988 9.1548C60.4894 9.09477 61.3708 9.07169 62.5382 9.07169H72.376V12.5808H63.498C62.1783 12.59 61.3016 12.65 60.8678 12.7562C59.9818 12.9733 59.5389 13.652 59.5389 14.7694C59.5389 15.7159 59.908 16.3577 60.6509 16.6855C61.1493 16.9071 61.9799 17.0179 63.1381 17.0179H66.3174C67.9462 17.0179 69.1552 17.1611 69.9627 17.4427C71.3608 17.9137 72.3252 18.7494 72.8467 19.9453C73.2758 20.9057 73.4881 21.9353 73.4881 23.0296C73.4881 24.2347 73.2112 25.3151 72.6621 26.2755C71.8869 27.6376 70.7195 28.4502 69.1644 28.7088C68.4123 28.8335 67.2771 28.8935 65.7682 28.8935H55.7966L55.792 28.8981Z" fill="white"/>
<path id="Vector_4" d="M87.197 9.07169H82.3334L74.1245 28.8981H79.0803L84.7698 13.8228L90.4501 28.8981H95.4059L87.197 9.07169Z" fill="white"/>
</g>
<g id="Group_2">
<path id="Vector_5" d="M10.3494 14.5431L15.5036 20.6009C15.5359 20.6425 15.5636 20.684 15.5959 20.721L21.4377 27.5222C22.4713 28.718 22.0237 29.6045 20.4502 29.4891L17.0679 29.2444C15.4944 29.129 13.3579 28.0578 12.3289 26.8665L6.49178 20.0607C5.45816 18.8648 5.58736 17.041 6.78248 16.0068L8.80357 14.2568C9.44496 13.8921 10.0125 14.1322 10.354 14.5385L10.3494 14.5431Z" fill="url(#paint0_linear_445_5761)"/>
<path id="Vector_6" d="M23.0341 10.48L15.8911 16.667C14.7329 17.669 14.5806 19.4051 15.5035 20.6009L10.3493 14.5431C10.0078 14.1368 9.44022 13.8967 8.79883 14.2615L13.9254 9.8243C15.1205 8.79004 17.3861 8.03743 18.9596 8.15287L22.342 8.39758C23.9155 8.51301 24.2292 9.45031 23.0341 10.4846V10.48Z" fill="url(#paint1_linear_445_5761)"/>
<g id="Group_3">
<path id="Vector_7" d="M9.2742 11.0479L5.74421 6.92006C6.47328 7.7604 6.38099 9.04399 5.54118 9.76889L0.511532 14.1276C-0.328281 14.8525 -0.111406 15.5127 0.99604 15.5958L3.37705 15.7667C4.48449 15.8452 6.07645 15.3142 6.91626 14.5893L10.8523 11.1448C10.4555 11.4865 9.54644 11.3711 9.26958 11.0525L9.2742 11.0479Z" fill="url(#paint2_linear_445_5761)"/>
<path id="Vector_8" d="M12.1487 7.38178L7.80201 2.35361C7.07294 1.51327 5.57328 0.760663 4.46583 0.68217L2.08483 0.506715C0.97738 0.428222 0.663603 1.04693 1.39267 1.88727L5.7394 6.91544L9.22324 10.9971C9.64776 11.4865 10.4553 11.4773 10.8567 11.1356L11.9457 10.226C12.7855 9.50109 12.8778 8.2175 12.1534 7.37716L12.1487 7.38178Z" fill="url(#paint3_linear_445_5761)"/>
</g>
</g>
</g>
<defs>
<linearGradient id="paint0_linear_445_5761" x1="7.77546" y1="16.6893" x2="23.8545" y2="34.927" gradientUnits="userSpaceOnUse">
<stop stop-color="#8DC63F"/>
<stop offset="0.24" stop-color="#8AC23D"/>
<stop offset="0.45" stop-color="#81B739"/>
<stop offset="0.65" stop-color="#73A533"/>
<stop offset="0.85" stop-color="#5F8C29"/>
<stop offset="0.93" stop-color="#558025"/>
</linearGradient>
<linearGradient id="paint1_linear_445_5761" x1="22.2344" y1="7.98141" x2="11.9401" y2="17.5953" gradientUnits="userSpaceOnUse">
<stop stop-color="#8DC63F"/>
<stop offset="0.45" stop-color="#8BC43E"/>
<stop offset="0.62" stop-color="#86BD3B"/>
<stop offset="0.73" stop-color="#7CB137"/>
<stop offset="0.83" stop-color="#6FA031"/>
<stop offset="0.91" stop-color="#5D8A29"/>
<stop offset="0.94" stop-color="#558025"/>
</linearGradient>
<linearGradient id="paint2_linear_445_5761" x1="1.77587" y1="14.6955" x2="8.30867" y2="9.04802" gradientUnits="userSpaceOnUse">
<stop stop-color="#005BAA"/>
<stop offset="0.27" stop-color="#0058A6"/>
<stop offset="0.5" stop-color="#00519B"/>
<stop offset="0.72" stop-color="#004589"/>
<stop offset="0.93" stop-color="#003570"/>
<stop offset="1" stop-color="#002F67"/>
</linearGradient>
<linearGradient id="paint3_linear_445_5761" x1="11.7519" y1="10.3968" x2="2.65056" y2="-0.027878" gradientUnits="userSpaceOnUse">
<stop stop-color="#005BAA"/>
<stop offset="0.27" stop-color="#0058A6"/>
<stop offset="0.5" stop-color="#00519B"/>
<stop offset="0.72" stop-color="#004589"/>
<stop offset="0.93" stop-color="#003570"/>
<stop offset="1" stop-color="#002F67"/>
</linearGradient>
</defs>
</svg>
