<svg width="407" height="124" viewBox="0 0 407 124" fill="none" xmlns="http://www.w3.org/2000/svg">
<path d="M137.159 37.4691V119.49H119.324V37.4691H137.159ZM137.759 77.9352L169.651 37.4691H192.946L158.188 77.9352L191.3 119.49H167.947L137.759 77.9352Z" fill="#003E7E"/>
<path d="M201.621 119.509V37.4691H219.455V119.49H201.621V119.509Z" fill="#003E7E"/>
<path d="M236.128 119.509V104.97H274.12C280.239 104.97 284.344 104.378 286.358 103.136C289.301 101.397 290.773 98.7987 290.773 95.2833C290.773 91.2711 289.049 88.3288 285.641 86.4564C283.666 85.4247 280.548 84.8706 276.269 84.8706H260.836C251.425 84.8706 244.667 83.1893 240.504 79.8649C237.928 77.7441 235.895 75.0693 234.443 71.8596C232.971 68.6307 232.255 65.2298 232.255 61.5806C232.255 55.8298 233.959 50.5948 237.367 45.8375C240.697 41.2521 246.042 38.5773 253.361 37.813C255.84 37.5646 259.539 37.4691 264.438 37.4691H305.722V51.9895H268.465C262.927 52.0277 259.248 52.2761 257.428 52.7155C253.71 53.6135 251.851 56.4221 251.851 61.0457C251.851 64.9624 253.4 67.6181 256.518 68.9746C258.609 69.8917 262.095 70.3502 266.955 70.3502H280.297C287.132 70.3502 292.205 70.9425 295.594 72.1079C301.461 74.0567 305.508 77.5149 307.697 82.4633C309.497 86.4373 310.388 90.6979 310.388 95.226C310.388 100.213 309.226 104.683 306.922 108.657C303.669 114.294 298.77 117.656 292.244 118.726C289.088 119.242 284.324 119.49 277.992 119.49H236.147L236.128 119.509Z" fill="#003E7E"/>
<path d="M367.918 37.4691H347.509L313.06 119.509H333.857L357.733 57.129L381.57 119.509H402.367L367.918 37.4691Z" fill="#003E7E"/>
<path d="M45.4304 60.1095L67.0599 85.1763C67.1954 85.3482 67.3116 85.5202 67.4472 85.673L91.9619 113.816C96.2994 118.764 94.4211 122.433 87.818 121.955L73.6243 120.942C67.0212 120.465 58.0557 116.032 53.7375 111.103L29.2421 82.9409C24.9046 77.9925 25.4468 70.4457 30.4621 66.166L38.9435 58.9249C41.635 57.4155 44.0168 58.409 45.4497 60.0903L45.4304 60.1095Z" fill="url(#paint0_linear_327_7973)"/>
<path d="M98.6618 43.2964L68.6864 68.8981C63.8261 73.0441 63.1871 80.2279 67.0599 85.1763L45.4304 60.1095C43.9974 58.4282 41.6157 57.4346 38.9241 58.944L60.4374 40.5833C65.4527 36.3036 74.9603 33.1894 81.5634 33.667L95.7572 34.6796C102.36 35.1573 103.677 39.0358 98.6618 43.3155V43.2964Z" fill="url(#paint1_linear_327_7973)"/>
<path d="M40.9186 45.6464L26.1052 28.5658C29.1647 32.0431 28.7774 37.3545 25.2532 40.3541L4.1465 58.3899C0.622264 61.3896 1.53237 64.1217 6.17971 64.4656L16.1715 65.1725C20.8188 65.4973 27.4994 63.3001 31.0236 60.3005L47.5411 46.0476C45.8758 47.4614 42.0611 46.9838 40.8992 45.6655L40.9186 45.6464Z" fill="url(#paint2_linear_327_7973)"/>
<path d="M52.9824 30.4763L34.7415 9.67011C31.682 6.19285 25.3888 3.07861 20.7414 2.75381L10.7496 2.02779C6.10229 1.70299 4.78554 4.26317 7.84504 7.74042L26.0859 28.5466L40.7056 45.4362C42.4871 47.4614 45.8758 47.4232 47.5605 46.0093L52.1303 42.2455C55.6546 39.2459 56.0419 33.9345 53.0017 30.4572L52.9824 30.4763Z" fill="url(#paint3_linear_327_7973)"/>
<defs>
<linearGradient id="paint0_linear_327_7973" x1="34.629" y1="68.9902" x2="101.04" y2="145.382" gradientUnits="userSpaceOnUse">
<stop stop-color="#8DC63F"/>
<stop offset="0.24" stop-color="#8AC23D"/>
<stop offset="0.45" stop-color="#81B739"/>
<stop offset="0.65" stop-color="#73A533"/>
<stop offset="0.85" stop-color="#5F8C29"/>
<stop offset="0.93" stop-color="#558025"/>
</linearGradient>
<linearGradient id="paint1_linear_327_7973" x1="95.3058" y1="32.9576" x2="52.6719" y2="73.3366" gradientUnits="userSpaceOnUse">
<stop stop-color="#8DC63F"/>
<stop offset="0.45" stop-color="#8BC43E"/>
<stop offset="0.62" stop-color="#86BD3B"/>
<stop offset="0.73" stop-color="#7CB137"/>
<stop offset="0.83" stop-color="#6FA031"/>
<stop offset="0.91" stop-color="#5D8A29"/>
<stop offset="0.94" stop-color="#558025"/>
</linearGradient>
<linearGradient id="paint2_linear_327_7973" x1="9.45222" y1="60.74" x2="36.5368" y2="36.9948" gradientUnits="userSpaceOnUse">
<stop stop-color="#005BAA"/>
<stop offset="0.27" stop-color="#0058A6"/>
<stop offset="0.5" stop-color="#00519B"/>
<stop offset="0.72" stop-color="#004589"/>
<stop offset="0.93" stop-color="#003570"/>
<stop offset="1" stop-color="#002F67"/>
</linearGradient>
<linearGradient id="paint3_linear_327_7973" x1="51.3171" y1="42.9524" x2="13.7313" y2="-0.707353" gradientUnits="userSpaceOnUse">
<stop stop-color="#005BAA"/>
<stop offset="0.27" stop-color="#0058A6"/>
<stop offset="0.5" stop-color="#00519B"/>
<stop offset="0.72" stop-color="#004589"/>
<stop offset="0.93" stop-color="#003570"/>
<stop offset="1" stop-color="#002F67"/>
</linearGradient>
</defs>
</svg>
