<svg width="20" height="20" viewBox="0 0 20 20" fill="none" xmlns="http://www.w3.org/2000/svg">
<g id="Clip path group">
<mask id="mask0_671_4903" style="mask-type:luminance" maskUnits="userSpaceOnUse" x="0" y="0" width="20" height="21">
<g id="clippath">
<path id="Vector" d="M20 0.000427246H0V20.0004H20V0.000427246Z" fill="white"/>
</g>
</mask>
<g mask="url(#mask0_671_4903)">
<g id="Group">
<g id="Group_2">
<g id="Group_3">
<g id="Group_4">
<path id="Vector_2" d="M11.3948 4.22673H6.9563C6.8409 4.22673 6.7255 4.18234 6.64561 4.09357C6.56571 4.01368 6.51245 3.89828 6.51245 3.78288V2.00747C6.51245 1.89206 6.55684 1.77666 6.64561 1.69677C6.7255 1.61688 6.8409 1.56361 6.9563 1.56361H11.3948C11.5102 1.56361 11.6256 1.608 11.7055 1.69677C11.7854 1.77666 11.8387 1.89206 11.8387 2.00747V3.78288C11.8387 3.89828 11.7943 4.01368 11.7055 4.09357C11.6256 4.17347 11.5102 4.22673 11.3948 4.22673Z" fill="#C8C9CC"/>
<path id="Vector_3" d="M14.0579 10.4407C14.6882 10.4407 15.283 10.5649 15.8333 10.778V4.04031C15.8333 3.82726 15.7801 3.61421 15.6913 3.41891C15.6025 3.22362 15.4783 3.04608 15.3273 2.89517C15.1764 2.74426 14.99 2.62885 14.7947 2.55784C14.5994 2.47794 14.3864 2.44244 14.1644 2.45131H12.9394V3.68522C12.9305 4.1202 12.7441 4.52854 12.4334 4.82149C12.1227 5.11443 11.7055 5.28309 11.2705 5.27422H7.08056C6.64558 5.28309 6.22836 5.12331 5.91767 4.82149C5.60697 4.51967 5.42055 4.11132 5.41167 3.68522V2.45131H4.16001C3.73391 2.44244 3.31669 2.60222 3.00599 2.90404C2.6953 3.19699 2.51775 3.60533 2.5 4.04031V15.9622C2.50888 16.3972 2.6953 16.8055 3.00599 17.0984C3.31669 17.4003 3.73391 17.5601 4.16889 17.5512H9.69929C9.36196 16.8854 9.15779 16.1309 9.15779 15.3319C9.15779 12.6333 11.3415 10.4495 14.0402 10.4495L14.0579 10.4407Z" fill="#C8C9CC"/>
</g>
</g>
<path id="Vector_4" d="M17.3066 17.6218L16.3812 16.6964C16.6721 16.2381 16.8395 15.7004 16.8395 15.1188C16.8395 13.4794 15.5087 12.1398 13.8606 12.1398C12.2124 12.1398 10.8816 13.4706 10.8816 15.1188C10.8816 16.7669 12.2124 18.0977 13.8606 18.0977C14.4422 18.0977 14.9799 17.9303 15.4382 17.6394L16.3636 18.5648C16.4958 18.697 16.6633 18.7587 16.8307 18.7587C16.9982 18.7587 17.1656 18.697 17.2978 18.5648C17.5534 18.3092 17.5534 17.8862 17.2978 17.6306L17.3066 17.6218ZM11.9921 15.1188C11.9921 14.0876 12.8294 13.2503 13.8606 13.2503C14.8917 13.2503 15.729 14.0876 15.729 15.1188C15.729 16.1499 14.8917 16.9872 13.8606 16.9872C12.8294 16.9872 11.9921 16.1499 11.9921 15.1188Z" fill="#C8C9CC"/>
</g>
</g>
</g>
</g>
</svg>
