<svg width="18" height="16" viewBox="0 0 18 16" fill="none" xmlns="http://www.w3.org/2000/svg">
<g id="Frame 1619">
<path id="Vector" d="M14.2998 0.5H1.57539C1.02097 0.5 0.666504 0.860667 0.666504 1.42479V3.27436H15.2087V1.42479C15.2087 0.860667 14.8542 0.5 14.2998 0.5ZM2.02983 2.34957C1.77534 2.34957 1.57539 2.14612 1.57539 1.88718C1.57539 1.62824 1.77534 1.42479 2.02983 1.42479C2.28432 1.42479 2.48428 1.62824 2.48428 1.88718C2.48428 2.14612 2.28432 2.34957 2.02983 2.34957ZM3.84761 2.34957C3.59312 2.34957 3.39316 2.14612 3.39316 1.88718C3.39316 1.62824 3.59312 1.42479 3.84761 1.42479C4.10209 1.42479 4.30205 1.62824 4.30205 1.88718C4.30205 2.14612 4.10209 2.34957 3.84761 2.34957ZM5.66538 2.34957C5.41089 2.34957 5.21093 2.14612 5.21093 1.88718C5.21093 1.62824 5.41089 1.42479 5.66538 1.42479C5.91987 1.42479 6.11982 1.62824 6.11982 1.88718C6.11982 2.14612 5.91987 2.34957 5.66538 2.34957Z" fill="#C8C9CC"/>
<path id="Vector_2" d="M17.3 14.3153L16.3746 13.3898C16.6655 12.9315 16.8329 12.3939 16.8329 11.8122C16.8329 10.1729 15.5021 8.83325 13.854 8.83325C12.2058 8.83325 10.875 10.1641 10.875 11.8122C10.875 13.4603 12.2058 14.7912 13.854 14.7912C14.4357 14.7912 14.9733 14.6237 15.4316 14.3329L16.357 15.2583C16.4892 15.3905 16.6567 15.4522 16.8241 15.4522C16.9916 15.4522 17.159 15.3905 17.2912 15.2583C17.5468 15.0027 17.5468 14.5797 17.2912 14.3241L17.3 14.3153ZM11.9855 11.8122C11.9855 10.781 12.8228 9.94375 13.854 9.94375C14.8851 9.94375 15.7224 10.781 15.7224 11.8122C15.7224 12.8434 14.8851 13.6807 13.854 13.6807C12.8228 13.6807 11.9855 12.8434 11.9855 11.8122Z" fill="#C8C9CC"/>
<g id="Group">
<path id="Vector_3" d="M13.6 7.35274C14.1726 7.35274 14.7088 7.47296 15.2087 7.67642V4.19922H0.666504V13.4471C0.666504 13.9557 1.0755 14.3719 1.57539 14.3719H10.2916C9.70992 13.632 9.34636 12.7073 9.34636 11.6807C9.34636 9.28554 11.255 7.35274 13.6 7.35274ZM3.50223 6.97358H9.84625V7.86137H3.50223V6.97358ZM7.93759 11.5975H3.50223V10.7097H7.93759V11.5975ZM7.93759 9.72944H3.50223V8.84165H7.93759V9.72944Z" fill="#C8C9CC"/>
</g>
</g>
</svg>
