<svg width="20" height="20" viewBox="0 0 20 20" fill="none" xmlns="http://www.w3.org/2000/svg">
<g id="member_fff_20">
<g id="Vector">
<path d="M10.0646 10.0283C6.7639 10.0283 4.03511 12.0689 4 14.6399V15.3966C4.02151 15.5749 4.11204 15.7376 4.25214 15.8498C4.39223 15.9619 4.57071 16.0146 4.7492 15.9965H15.2508C15.4293 16.0146 15.6078 15.9619 15.7479 15.8498C15.888 15.7376 15.9785 15.5749 16 15.3966V14.6373C15.9666 12.122 13.2995 10.0541 10.0621 10.0258" fill="white" fill-opacity="0.87"/>
<path d="M9.97942 9.15228H9.98456C10.667 9.1516 11.3212 8.87971 11.8033 8.39638C12.2855 7.91306 12.5561 7.25787 12.5558 6.57485C12.5555 5.89184 12.2841 5.23692 11.8015 4.75408C11.3189 4.27124 10.6644 4 9.98199 4C9.2996 4 8.64513 4.27124 8.16249 4.75408C7.67984 5.23692 7.40852 5.89184 7.40818 6.57485C7.40784 7.25787 7.6785 7.91306 8.16067 8.39638C8.64283 8.87971 9.29703 9.1516 9.97942 9.15228Z" fill="white" fill-opacity="0.87"/>
</g>
</g>
</svg>
