<svg width="38" height="38" viewBox="0 0 38 38" fill="none" xmlns="http://www.w3.org/2000/svg">
<ellipse cx="19" cy="18.9998" rx="18.75" ry="18.7498" fill="white" fill-opacity="0.12"/>
<path d="M19.2452 19.0036C13.4163 19.0036 8.59799 22.6224 8.53564 27.1828V28.5244C8.57256 28.84 8.73193 29.1284 8.97943 29.3276C9.22694 29.5268 9.54277 29.6208 9.85893 29.5894H28.4041C28.7202 29.6207 29.036 29.5266 29.2835 29.3274C29.5309 29.1283 29.6903 28.8399 29.7274 28.5244V27.1786C29.6678 22.718 24.9616 19.0505 19.2452 19.0036Z" fill="white" fill-opacity="0.6"/>
<path d="M18.9953 17.4867C20.2494 17.4854 21.4517 16.9862 22.3378 16.0988C23.2239 15.2113 23.7214 14.0083 23.7207 12.7542C23.7201 11.5001 23.2215 10.2975 22.3345 9.41097C21.4475 8.5244 20.2447 8.02637 18.9906 8.02637C17.7365 8.02637 16.5337 8.5244 15.6467 9.41097C14.7597 10.2975 14.2611 11.5001 14.2604 12.7542C14.2598 14.0083 14.7573 15.2113 15.6434 16.0988C16.5263 16.983 17.7462 17.4867 18.9953 17.4867Z" fill="white" fill-opacity="0.6"/>
</svg>
