<svg width="20" height="20" viewBox="0 0 20 20" fill="none" xmlns="http://www.w3.org/2000/svg">
<g id="monitering_24">
<path id="Vector" d="M6.5 17.5H13.5" stroke="#C8C9CC" stroke-width="2" stroke-linecap="round" stroke-linejoin="round"/>
<path id="Vector_2" d="M10 13.8203V17.5003" stroke="#C8C9CC" stroke-width="2" stroke-linecap="round" stroke-linejoin="round"/>
<path id="Exclude" fill-rule="evenodd" clip-rule="evenodd" d="M4.4 2H15.6C16.92 2 18 3.09 18 4.43V11.57C18 12.91 16.92 14 15.6 14H4.4C3.08 14 2 12.91 2 11.57V4.43C2 3.09 3.08 2 4.4 2ZM6.7744 9.71597C5.88711 9.087 5.21855 8.37134 4.90237 7.99994C5.22533 7.62585 5.89361 6.91117 6.77836 6.28317C7.70023 5.62882 8.81802 5.09631 10.0009 5.09631C11.184 5.09631 12.3044 5.62896 13.2275 6.28332C14.0578 6.87191 14.6966 7.5364 15.0343 7.92365V7.93228L15.0952 8.00431C14.7707 8.37974 14.1044 9.09088 13.2235 9.71612C12.3016 10.3705 11.1839 10.903 10.0009 10.903C8.81785 10.903 7.69749 10.3703 6.7744 9.71597ZM10.0009 4.26298C8.57386 4.26298 7.28664 4.90047 6.29601 5.60362C5.30535 6.3068 4.57213 7.10345 4.2383 7.49413C3.98002 7.78104 3.9796 8.21636 4.23703 8.50376C4.56823 8.89725 5.30147 9.69332 6.29247 10.3958C7.28438 11.099 8.57402 11.7363 10.0009 11.7363C11.428 11.7363 12.7152 11.0988 13.7059 10.3957C14.7008 9.68945 15.4361 8.88894 15.7679 8.50011L15.769 8.49879C15.9712 8.25981 16.0041 7.92809 15.8676 7.65897V7.61787L15.77 7.50165C15.4413 7.11033 14.7056 6.30963 13.7094 5.60347C12.7175 4.90033 11.4279 4.26298 10.0009 4.26298ZM8.08065 7.99902C8.08065 6.93956 8.93951 6.08069 9.99898 6.08069C11.0584 6.08069 11.9173 6.93956 11.9173 7.99902C11.9173 9.05849 11.0584 9.91736 9.99898 9.91736C8.93951 9.91736 8.08065 9.05849 8.08065 7.99902ZM9.99946 7.27596C9.59997 7.27596 9.27612 7.59981 9.27612 7.99929C9.27612 8.39878 9.59997 8.72263 9.99946 8.72263C10.3989 8.72263 10.7228 8.39878 10.7228 7.99929C10.7228 7.59981 10.3989 7.27596 9.99946 7.27596Z" fill="#C8C9CC"/>
</g>
</svg>
