<svg width="16" height="16" viewBox="0 0 16 16" fill="none" xmlns="http://www.w3.org/2000/svg">
<g id="more_fff_16">
<path id="&#237;&#149;&#169;&#236;&#185;&#152;&#234;&#184;&#176;" d="M11 8C11 7.80222 11.0586 7.60888 11.1685 7.44443C11.2784 7.27998 11.4346 7.15181 11.6173 7.07612C11.8 7.00043 12.0011 6.98063 12.1951 7.01922C12.3891 7.0578 12.5673 7.15304 12.7071 7.29289C12.847 7.43275 12.9422 7.61093 12.9808 7.80491C13.0194 7.99889 12.9996 8.19996 12.9239 8.38268C12.8482 8.56541 12.72 8.72159 12.5556 8.83147C12.3911 8.94135 12.1978 9 12 9C11.7348 9 11.4804 8.89464 11.2929 8.70711C11.1054 8.51957 11 8.26522 11 8ZM7 8C7 7.80222 7.05865 7.60888 7.16853 7.44443C7.27841 7.27998 7.43459 7.15181 7.61732 7.07612C7.80004 7.00043 8.00111 6.98063 8.19509 7.01922C8.38907 7.0578 8.56725 7.15304 8.70711 7.29289C8.84696 7.43275 8.9422 7.61093 8.98078 7.80491C9.01937 7.99889 8.99957 8.19996 8.92388 8.38268C8.84819 8.56541 8.72002 8.72159 8.55557 8.83147C8.39112 8.94135 8.19778 9 8 9C7.73478 9 7.48043 8.89464 7.29289 8.70711C7.10536 8.51957 7 8.26522 7 8ZM3 8C3 7.80222 3.05865 7.60888 3.16853 7.44443C3.27841 7.27998 3.43459 7.15181 3.61732 7.07612C3.80004 7.00043 4.00111 6.98063 4.19509 7.01922C4.38907 7.0578 4.56725 7.15304 4.70711 7.29289C4.84696 7.43275 4.9422 7.61093 4.98079 7.80491C5.01937 7.99889 4.99957 8.19996 4.92388 8.38268C4.84819 8.56541 4.72002 8.72159 4.55557 8.83147C4.39112 8.94135 4.19778 9 4 9C3.73478 9 3.48043 8.89464 3.29289 8.70711C3.10536 8.51957 3 8.26522 3 8Z" fill="#939599"/>
</g>
</svg>
