<svg width="14" height="16" viewBox="0 0 14 16" fill="none" xmlns="http://www.w3.org/2000/svg">
<g id="Group 179045">
<g id="Group 179046">
<g id="Exclude">
<mask id="path-1-inside-1_1213_24247" fill="white">
<path fill-rule="evenodd" clip-rule="evenodd" d="M6.99967 15.5673C10.333 13.4461 13.6663 10.0286 13.6663 6.4932C13.6663 3.36916 10.6816 0.0117188 6.99967 0.0117188C3.31778 0.0117188 0.333008 3.36916 0.333008 6.4932C0.333008 10.0286 3.66634 13.4461 6.99967 15.5673ZM6.99859 8.34939C8.22589 8.34939 9.22081 7.35447 9.22081 6.12717C9.22081 4.89987 8.22589 3.90495 6.99859 3.90495C5.77129 3.90495 4.77637 4.89987 4.77637 6.12717C4.77637 7.35447 5.77129 8.34939 6.99859 8.34939Z"/>
</mask>
<path fill-rule="evenodd" clip-rule="evenodd" d="M6.99967 15.5673C10.333 13.4461 13.6663 10.0286 13.6663 6.4932C13.6663 3.36916 10.6816 0.0117188 6.99967 0.0117188C3.31778 0.0117188 0.333008 3.36916 0.333008 6.4932C0.333008 10.0286 3.66634 13.4461 6.99967 15.5673ZM6.99859 8.34939C8.22589 8.34939 9.22081 7.35447 9.22081 6.12717C9.22081 4.89987 8.22589 3.90495 6.99859 3.90495C5.77129 3.90495 4.77637 4.89987 4.77637 6.12717C4.77637 7.35447 5.77129 8.34939 6.99859 8.34939Z" fill="white" fill-opacity="0.87"/>
<path d="M6.99967 15.5673L6.4628 16.4109L6.99967 16.7526L7.53655 16.4109L6.99967 15.5673ZM12.6663 6.4932C12.6663 7.94771 11.9755 9.47012 10.8023 10.9356C9.6365 12.3919 8.06021 13.7071 6.4628 14.7236L7.53655 16.4109C9.27247 15.3063 11.0295 13.8521 12.3637 12.1855C13.6905 10.5281 14.6663 8.57404 14.6663 6.4932H12.6663ZM6.99967 1.01172C8.52999 1.01172 9.9498 1.71078 10.9998 2.78122C12.0573 3.85918 12.6663 5.23837 12.6663 6.4932H14.6663C14.6663 4.62399 13.783 2.76245 12.4276 1.38067C11.0648 -0.00862102 9.15126 -0.988281 6.99967 -0.988281V1.01172ZM1.33301 6.4932C1.33301 5.23837 1.94209 3.85918 2.9995 2.78122C4.04954 1.71078 5.46936 1.01172 6.99967 1.01172V-0.988281C4.84809 -0.988281 2.93457 -0.008621 1.57175 1.38067C0.216311 2.76245 -0.666992 4.62399 -0.666992 6.4932H1.33301ZM7.53655 14.7236C5.93914 13.7071 4.36285 12.3919 3.197 10.9356C2.02384 9.47012 1.33301 7.94771 1.33301 6.4932H-0.666992C-0.666992 8.57404 0.308842 10.5281 1.63568 12.1855C2.96983 13.8521 4.72688 15.3063 6.4628 16.4109L7.53655 14.7236ZM8.22081 6.12717C8.22081 6.80219 7.6736 7.34939 6.99859 7.34939V9.34939C8.77817 9.34939 10.2208 7.90675 10.2208 6.12717H8.22081ZM6.99859 4.90495C7.6736 4.90495 8.22081 5.45216 8.22081 6.12717H10.2208C10.2208 4.34759 8.77817 2.90495 6.99859 2.90495V4.90495ZM5.77637 6.12717C5.77637 5.45216 6.32358 4.90495 6.99859 4.90495V2.90495C5.21901 2.90495 3.77637 4.34759 3.77637 6.12717H5.77637ZM6.99859 7.34939C6.32358 7.34939 5.77637 6.80218 5.77637 6.12717H3.77637C3.77637 7.90675 5.21901 9.34939 6.99859 9.34939V7.34939Z" fill="white" fill-opacity="0.87" mask="url(#path-1-inside-1_1213_24247)"/>
</g>
</g>
</g>
</svg>
