<svg width="16" height="16" viewBox="0 0 16 16" fill="none" xmlns="http://www.w3.org/2000/svg">
<g id="open_in_new_fff_20">
<g id="Vector">
<path fill-rule="evenodd" clip-rule="evenodd" d="M2.40039 2.80039C2.40039 2.57948 2.57948 2.40039 2.80039 2.40039H13.2004C13.4213 2.40039 13.6004 2.57948 13.6004 2.80039V13.2004C13.6004 13.4213 13.4213 13.6004 13.2004 13.6004H7.5998C7.37888 13.6004 7.1998 13.4213 7.1998 13.2004C7.1998 12.9795 7.37888 12.8004 7.5998 12.8004H12.8004V3.20039H3.20039V7.63872C3.20039 7.85963 3.0213 8.03872 2.80039 8.03872C2.57948 8.03872 2.40039 7.85963 2.40039 7.63872V2.80039Z" fill="white" fill-opacity="0.87"/>
<path d="M7.19727 5.60039C6.97635 5.60039 6.79727 5.77948 6.79727 6.00039C6.79727 6.2213 6.97635 6.40039 7.19727 6.40039H9.06799L6.11729 9.35658C5.96122 9.51293 5.96146 9.7662 6.11781 9.92226C6.27417 10.0783 6.52743 10.0781 6.6835 9.92174L9.62698 6.97279V8.8301C9.62698 9.05102 9.80606 9.2301 10.027 9.2301C10.2479 9.2301 10.427 9.05102 10.427 8.8301V6.06629C10.4474 5.94312 10.4101 5.81222 10.315 5.71729C10.2362 5.63866 10.1329 5.59971 10.0297 5.6004L10.027 5.60039H7.19727Z" fill="white" fill-opacity="0.87"/>
</g>
</g>
</svg>
