<svg width="20" height="20" viewBox="0 0 20 20" fill="none" xmlns="http://www.w3.org/2000/svg">
<g id="Frame 180319">
<path id="box" d="M16.3121 1.11157H3.68653C3.00426 1.11421 2.35093 1.38651 1.86849 1.86895C1.38605 2.35139 1.11375 3.00499 1.11111 3.68726V16.3127C1.11375 16.995 1.38605 17.6486 1.86849 18.131C2.35093 18.6135 3.00426 18.8856 3.68653 18.8883H16.3132C16.9955 18.8856 17.6491 18.6135 18.1315 18.131C18.614 17.6486 18.8863 16.995 18.8889 16.3127V3.68726C18.8863 3.0048 18.6139 2.35102 18.1312 1.86854C17.6486 1.38607 16.9946 1.11391 16.3121 1.11157Z" fill="#004EA2"/>
<path id="&#237;&#140;&#168;&#236;&#138;&#164; 91968 (Stroke)" fill-rule="evenodd" clip-rule="evenodd" d="M5.55554 9.16602H14.4444V10.8327H5.55554V9.16602Z" fill="white"/>
</g>
</svg>
