<svg width="20" height="20" viewBox="0 0 20 20" fill="none" xmlns="http://www.w3.org/2000/svg">
<g clip-path="url(#clip0_671_4942)">
<path fill-rule="evenodd" clip-rule="evenodd" d="M13.7749 2.50043H14.9916C15.9083 2.50043 16.6583 3.24209 16.6583 4.16709V9.47948C16.3095 9.19743 15.9052 8.9896 15.4703 8.87039C14.9091 8.71466 14.3167 8.71047 13.7534 8.85829C13.189 9.00638 12.6741 9.30171 12.2613 9.71408C11.8485 10.1265 11.5527 10.6411 11.404 11.2053C11.2556 11.7684 11.2592 12.3608 11.4143 12.922C11.5263 13.3328 11.7174 13.7163 11.9754 14.0516C11.2728 14.2876 10.6438 14.7023 10.1498 15.1772C9.38777 15.9099 8.75003 16.9784 8.75003 18.1495V18.3338H4.99992C4.08325 18.3338 3.33325 17.5838 3.33325 16.6671V4.16709C3.33325 3.24209 4.08325 2.50043 4.99992 2.50043H6.24992V3.79209C6.24992 4.70876 6.99992 5.45876 7.91658 5.45876H12.1083C13.0333 5.45876 13.7749 4.70876 13.7749 3.79209V2.50043Z" fill="#C8C9CC"/>
<path d="M12.1833 1.6671H7.81667C7.64178 1.6671 7.5 1.80888 7.5 1.98377V3.85043C7.5 4.02532 7.64178 4.1671 7.81667 4.1671H12.1833C12.3582 4.1671 12.5 4.02532 12.5 3.85043V1.98377C12.5 1.80888 12.3582 1.6671 12.1833 1.6671Z" fill="#C8C9CC"/>
</g>
<path d="M14.0292 14.0022C14.378 14.0995 14.7464 14.1022 15.0967 14.0103C15.447 13.9184 15.7666 13.7351 16.0227 13.4791C16.2789 13.2232 16.4625 12.9038 16.5547 12.5536C16.6469 12.2034 16.6444 11.835 16.5475 11.486C16.4556 11.1486 16.2772 10.8409 16.03 10.5935C15.7828 10.3461 15.4752 10.1675 15.1378 10.0754C14.789 9.97824 14.4207 9.97547 14.0705 10.0674C13.7203 10.1593 13.4008 10.3425 13.1446 10.5984C12.8885 10.8543 12.7049 11.1736 12.6126 11.5238C12.5204 11.8739 12.5228 12.2422 12.6196 12.5911C12.7113 12.9287 12.8896 13.2365 13.1368 13.484C13.3841 13.7315 13.6917 13.9102 14.0292 14.0022Z" fill="#C8C9CC"/>
<path d="M15.9584 15.0941H13.2084C11.6404 15.0941 10.0001 16.7003 10.0001 18.1496V18.4287C9.99696 18.6115 10.0625 18.7889 10.1837 18.9258C10.305 19.0627 10.4731 19.1491 10.655 19.1681H18.5118C18.69 19.1573 18.8574 19.0784 18.9792 18.9479C19.1011 18.8173 19.1682 18.6449 19.1667 18.4663V18.1496C19.1667 16.7003 17.5264 15.0941 15.9584 15.0941Z" fill="#C8C9CC"/>
<defs>
<clipPath id="clip0_671_4942">
<rect width="20" height="20" fill="white" transform="translate(0 0.000427246)"/>
</clipPath>
</defs>
</svg>
