<svg width="16" height="16" viewBox="0 0 16 16" fill="none" xmlns="http://www.w3.org/2000/svg">
<path d="M0.0625 0.0629883H15.9375V15.938H0.0625V0.0629883Z" stroke="white" stroke-width="0.125"/>
<path d="M6 13.5004H3C2.86739 13.5004 2.74021 13.4477 2.64645 13.354C2.55268 13.2602 2.5 13.133 2.5 13.0004V10.2075C2.5 10.1419 2.51293 10.0768 2.53806 10.0162C2.56319 9.95551 2.60002 9.90039 2.64645 9.85397L10.1464 2.35397C10.2402 2.2602 10.3674 2.20752 10.5 2.20752C10.6326 2.20752 10.7598 2.2602 10.8536 2.35397L13.6464 5.14686C13.7402 5.24063 13.7929 5.3678 13.7929 5.50041C13.7929 5.63302 13.7402 5.7602 13.6464 5.85397L6 13.5004Z" stroke="black" stroke-opacity="0.8" stroke-linecap="round" stroke-linejoin="round"/>
<path d="M8.5 4.00049L12 7.50049" stroke="black" stroke-opacity="0.8" stroke-linecap="round" stroke-linejoin="round"/>
<path d="M13.5 13.5004H6.00005L2.53186 10.0322" stroke="black" stroke-opacity="0.8" stroke-linecap="round" stroke-linejoin="round"/>
</svg>
