<svg width="16" height="16" viewBox="0 0 16 16" fill="none" xmlns="http://www.w3.org/2000/svg">
<g id="edit_pencil_bk_20">
<path id="&#237;&#140;&#168;&#236;&#138;&#164; 91918" d="M3.04346 13.598C2.95464 13.5981 2.86697 13.5779 2.78713 13.5389C2.70729 13.5 2.63738 13.4434 2.58272 13.3733C2.52806 13.3033 2.49008 13.2218 2.47167 13.1349C2.45326 13.048 2.45491 12.958 2.47649 12.8718L3.0615 10.5332C3.088 10.4299 3.14223 10.3358 3.21834 10.2611L10.5247 2.95433C10.6932 2.78069 10.8946 2.6423 11.117 2.54721C11.3395 2.45212 11.5787 2.40223 11.8207 2.40044C12.0626 2.39865 12.3025 2.445 12.5264 2.53679C12.7503 2.62857 12.9536 2.76397 13.1247 2.9351C13.2958 3.10622 13.4311 3.30966 13.5228 3.53357C13.6145 3.75749 13.6608 3.99741 13.6589 4.23937C13.6571 4.48133 13.6071 4.72051 13.512 4.94299C13.4168 5.16546 13.2784 5.36679 13.1047 5.53526L5.7952 12.842C5.72049 12.9181 5.62639 12.9724 5.52309 12.9989L3.1854 13.5831C3.13923 13.5946 3.09183 13.6004 3.04425 13.6004" fill="white" fill-opacity="0.87"/>
</g>
</svg>
