<svg width="16" height="16" viewBox="0 0 16 16" fill="none" xmlns="http://www.w3.org/2000/svg">
<path d="M8.89904 4.63672L3.38793 10.1478C3.31537 10.2189 3.26397 10.3088 3.23949 10.4074L2.68215 12.6385C2.6715 12.6824 2.66642 12.7275 2.66704 12.7727C2.66681 12.8461 2.68105 12.9187 2.70896 12.9865C2.73686 13.0544 2.77788 13.116 2.82965 13.168C2.88143 13.2199 2.94295 13.2611 3.01068 13.2892C3.07842 13.3174 3.15104 13.3318 3.22438 13.3318C3.2696 13.3311 3.31461 13.3255 3.3586 13.3149L5.58971 12.7567C5.68809 12.7322 5.77786 12.6811 5.84927 12.6092L11.3604 7.09805L8.89904 4.63672Z" fill="white" fill-opacity="0.87"/>
<path d="M12.8243 3.1778C12.4978 2.85135 12.0549 2.66797 11.5932 2.66797C11.1315 2.66797 10.6886 2.85135 10.3621 3.1778L9.52832 4.01157L11.9905 6.4738L12.8234 5.64091C13.1499 5.31436 13.3333 4.87153 13.3333 4.4098C13.3333 3.94806 13.1499 3.50523 12.8234 3.17868" fill="white" fill-opacity="0.87"/>
</svg>
