<svg width="16" height="16" viewBox="0 0 16 16" fill="none" xmlns="http://www.w3.org/2000/svg">
<path d="M3.04395 13.5961C2.95512 13.5961 2.86746 13.5759 2.78762 13.537C2.70778 13.498 2.63787 13.4414 2.58321 13.3714C2.52854 13.3014 2.49056 13.2198 2.47216 13.1329C2.45375 13.046 2.4554 12.956 2.47698 12.8699L3.06199 10.5313C3.08849 10.428 3.14272 10.3339 3.21883 10.2591L10.5252 2.95237C10.6937 2.77874 10.895 2.64035 11.1175 2.54526C11.34 2.45017 11.5792 2.40028 11.8212 2.39849C12.0631 2.3967 12.303 2.44305 12.5269 2.53483C12.7507 2.62662 12.9541 2.76202 13.1252 2.93314C13.2963 3.10427 13.4316 3.30771 13.5233 3.53162C13.615 3.75553 13.6613 3.99545 13.6594 4.23742C13.6576 4.47938 13.6076 4.71856 13.5124 4.94103C13.4173 5.16351 13.2788 5.36484 13.1052 5.53331L5.79569 12.8401C5.72098 12.9162 5.62688 12.9704 5.52357 12.9969L3.18589 13.5812C3.13972 13.5927 3.09231 13.5985 3.04473 13.5984" fill="white" fill-opacity="0.87"/>
</svg>
