<svg width="40" height="40" viewBox="0 0 40 40" fill="none" xmlns="http://www.w3.org/2000/svg">
<mask id="mask0_259_7181" style="mask-type:luminance" maskUnits="userSpaceOnUse" x="0" y="0" width="40" height="40">
<path d="M40 0H0V40H40V0Z" fill="white"/>
</mask>
<g mask="url(#mask0_259_7181)">
<path d="M20.214 20.0141C9.212 20.0141 0.118 26.8421 0 35.4481V37.9801C0.0670172 38.5777 0.366783 39.1248 0.834353 39.5029C1.30192 39.881 1.89964 40.0596 2.498 40.0001H37.498C38.0968 40.0597 38.695 39.8811 39.1632 39.5031C39.6314 39.1251 39.932 38.578 40 37.9801V35.4401C39.888 27.0241 31 20.0961 20.2 20.0061" fill="white" fill-opacity="0.6"/>
<path d="M19.9902 18H20.0002C22.3864 17.9976 24.6739 17.0477 26.3599 15.3592C28.046 13.6706 28.9924 11.3817 28.9912 8.9955C28.99 6.60933 28.0413 4.3213 26.3536 2.63445C24.6659 0.947594 22.3774 0 19.9912 0C17.605 0 15.3165 0.947594 13.6288 2.63445C11.9411 4.3213 10.9924 6.60933 10.9912 8.9955C10.99 11.3817 11.9365 13.6706 13.6225 15.3592C15.3085 17.0477 17.596 17.9976 19.9822 18" fill="white" fill-opacity="0.6"/>
</g>
</svg>
