<svg width="21" height="20" viewBox="0 0 21 20" fill="none" xmlns="http://www.w3.org/2000/svg">
<path d="M10.5027 16.0459C9.5338 16.0461 8.57913 15.8125 7.71979 15.3648C6.86046 14.9172 6.12186 14.2688 5.56671 13.4746C5.01156 12.6805 4.65626 11.7641 4.531 10.8033C4.40573 9.8425 4.5142 8.86565 4.84718 7.95573C5.18017 7.04581 5.72783 6.22969 6.44367 5.57668C7.1595 4.92368 8.02236 4.45308 8.95896 4.20485C9.89556 3.95662 10.8782 3.93809 11.8235 4.15084C12.7688 4.3636 13.6488 4.80134 14.3887 5.42691C14.4798 5.50393 14.5548 5.59813 14.6095 5.70414C14.6641 5.81015 14.6974 5.92589 14.7073 6.04475C14.7173 6.16361 14.7037 6.28326 14.6674 6.39687C14.6311 6.51048 14.5728 6.61583 14.4957 6.70691C14.4187 6.79798 14.3245 6.87299 14.2185 6.92765C14.1125 6.98232 13.9968 7.01557 13.8779 7.0255C13.759 7.03544 13.6394 7.02187 13.5258 6.98556C13.4122 6.94925 13.3068 6.89093 13.2157 6.81391C12.4849 6.19704 11.5654 5.84808 10.6093 5.82473C9.65319 5.80137 8.71775 6.10503 7.95765 6.68548C7.19756 7.26594 6.65833 8.08842 6.42913 9.01694C6.19993 9.94545 6.29449 10.9244 6.69717 11.7919C7.09985 12.6593 7.78654 13.3634 8.64368 13.7876C9.50082 14.2119 10.4771 14.3309 11.411 14.125C12.345 13.919 13.1807 13.4005 13.78 12.6552C14.3792 11.9098 14.7062 10.9823 14.7067 10.0259C14.7067 9.78509 14.8024 9.55414 14.9727 9.38385C15.143 9.21357 15.3739 9.11791 15.6147 9.11791C15.8556 9.11791 16.0865 9.21357 16.2568 9.38385C16.4271 9.55414 16.5227 9.78509 16.5227 10.0259C16.5209 11.6219 15.886 13.1521 14.7575 14.2806C13.6289 15.4092 12.0988 16.0441 10.5027 16.0459Z" fill="white"/>
<path d="M11.2341 7.54546C11.0005 7.54594 10.7757 7.45638 10.6064 7.29538C10.4372 7.13438 10.3365 6.91434 10.3253 6.68101C10.3141 6.44767 10.3932 6.219 10.5463 6.04252C10.6993 5.86605 10.9145 5.75536 11.1471 5.73346L12.7401 5.57846L12.0691 4.14046C11.9827 3.92502 11.9821 3.68468 12.0674 3.46882C12.1527 3.25295 12.3175 3.07795 12.5278 2.97977C12.7381 2.88158 12.978 2.86767 13.1983 2.94089C13.4186 3.01411 13.6024 3.1689 13.7121 3.37346L14.9251 5.97346C14.9861 6.10479 15.0149 6.24882 15.0089 6.39352C15.0029 6.53822 14.9624 6.67939 14.8908 6.80525C14.8191 6.93111 14.7184 7.03801 14.5971 7.11702C14.4757 7.19603 14.3372 7.24487 14.1931 7.25946L11.3231 7.53846C11.2931 7.54446 11.2631 7.54546 11.2341 7.54546Z" fill="white"/>
</svg>
