<svg width="10" height="11" viewBox="0 0 10 11" fill="none" xmlns="http://www.w3.org/2000/svg">
<g id="Vector">
<path d="M5.0022 10.8367C4.22705 10.8369 3.46331 10.65 2.77585 10.2918C2.08838 9.93373 1.4975 9.41499 1.05338 8.77969C0.609258 8.14438 0.325022 7.41128 0.22481 6.64263C0.124599 5.87399 0.211371 5.09251 0.477759 4.36457C0.744146 3.63664 1.18228 2.98374 1.75495 2.46133C2.32762 1.93893 3.0179 1.56245 3.76718 1.36386C4.51646 1.16528 5.3026 1.15046 6.05883 1.32066C6.81506 1.49087 7.51905 1.84106 8.111 2.34151C8.18386 2.40313 8.24387 2.47849 8.2876 2.5633C8.33133 2.64811 8.35793 2.7407 8.36588 2.83578C8.37383 2.93087 8.36297 3.02659 8.33393 3.11748C8.30488 3.20838 8.25822 3.29266 8.1966 3.36551C8.13499 3.43837 8.05962 3.49838 7.97482 3.54211C7.89001 3.58584 7.79742 3.61244 7.70233 3.62039C7.60724 3.62834 7.51152 3.61748 7.42063 3.58844C7.32974 3.55939 7.24546 3.51273 7.1726 3.45111C6.58792 2.95762 5.85232 2.67845 5.08744 2.65977C4.32256 2.64109 3.57421 2.88401 2.96614 3.34838C2.35806 3.81274 1.92668 4.47073 1.74332 5.21354C1.55996 5.95635 1.6356 6.73949 1.95775 7.43348C2.27989 8.12746 2.82924 8.69072 3.51496 9.03011C4.20067 9.3695 4.98168 9.4647 5.72884 9.29996C6.476 9.13523 7.14457 8.72042 7.62399 8.12414C8.1034 7.52786 8.36496 6.78582 8.3654 6.02071C8.3654 5.82806 8.44193 5.6433 8.57816 5.50707C8.71439 5.37084 8.89915 5.29431 9.0918 5.29431C9.28446 5.29431 9.46922 5.37084 9.60544 5.50707C9.74167 5.6433 9.8182 5.82806 9.8182 6.02071C9.81672 7.29754 9.30885 8.52165 8.40599 9.4245C7.50314 10.3274 6.27903 10.8352 5.0022 10.8367Z" fill="white" fill-opacity="0.87"/>
<path d="M5.5873 4.03635C5.40041 4.03674 5.22057 3.96509 5.08516 3.83629C4.94975 3.70749 4.86919 3.53146 4.86022 3.34479C4.85126 3.15813 4.91459 2.97518 5.03704 2.83401C5.15949 2.69283 5.33164 2.60427 5.5177 2.58675L6.7921 2.46275L6.2553 1.31235C6.18619 1.14001 6.18571 0.947735 6.25395 0.775043C6.3222 0.60235 6.45399 0.46235 6.62224 0.383803C6.7905 0.305256 6.98245 0.294126 7.15866 0.352701C7.33487 0.411276 7.48195 0.535107 7.5697 0.698755L8.5401 2.77875C8.58892 2.88382 8.6119 2.99905 8.60712 3.1148C8.60234 3.23056 8.56994 3.3435 8.51263 3.44419C8.45532 3.54487 8.37476 3.63039 8.27766 3.6936C8.18057 3.75682 8.06976 3.79589 7.9545 3.80755L5.6585 4.03075C5.6345 4.03555 5.6105 4.03635 5.5873 4.03635Z" fill="white" fill-opacity="0.87"/>
</g>
</svg>
