<svg width="20" height="20" viewBox="0 0 20 20" fill="none" xmlns="http://www.w3.org/2000/svg">
<g id="_2021" clip-path="url(#clip0_686_2250)">
<g id="Group">
<path id="Exclude" fill-rule="evenodd" clip-rule="evenodd" d="M13.7752 2.5H14.9918C15.9085 2.5 16.6585 3.24167 16.6585 4.16667V16.6667C16.6585 17.5833 15.9085 18.3333 14.9918 18.3333H5.00016C4.0835 18.3333 3.3335 17.5833 3.3335 16.6667V4.16667C3.3335 3.24167 4.0835 2.5 5.00016 2.5H6.25016V3.79167C6.25016 4.70833 7.00016 5.45833 7.91683 5.45833H12.1085C13.0335 5.45833 13.7752 4.70833 13.7752 3.79167V2.5ZM12.6127 8.33333L8.88528 11.9388L7.38766 10.4902L6.66683 11.1874L8.88528 13.3333L13.3335 9.03059L12.6127 8.33333Z" fill="#C4C7CC"/>
<path id="Vector" d="M12.1833 1.66675H7.81667C7.64178 1.66675 7.5 1.80852 7.5 1.98341V3.85008C7.5 4.02497 7.64178 4.16675 7.81667 4.16675H12.1833C12.3582 4.16675 12.5 4.02497 12.5 3.85008V1.98341C12.5 1.80852 12.3582 1.66675 12.1833 1.66675Z" fill="#C4C7CC"/>
</g>
</g>
<defs>
<clipPath id="clip0_686_2250">
<rect width="20" height="20" fill="white"/>
</clipPath>
</defs>
</svg>
