<svg width="16" height="16" viewBox="0 0 16 16" fill="none" xmlns="http://www.w3.org/2000/svg">
<path id="Vector" d="M15.0849 12.9234L12.9842 10.8262C13.6444 9.78762 14.0245 8.56924 14.0245 7.251C14.0245 3.53595 11.0035 0.5 7.26226 0.5C3.52101 0.5 0.5 3.51598 0.5 7.251C0.5 10.986 3.52101 14.002 7.26226 14.002C8.5827 14.002 9.8031 13.6225 10.8434 12.9634L12.9441 15.0606C13.2442 15.3602 13.6244 15.5 14.0045 15.5C14.3846 15.5 14.7648 15.3602 15.0649 15.0606C15.645 14.4814 15.645 13.5226 15.0649 12.9434L15.0849 12.9234ZM3.02084 7.251C3.02084 4.91411 4.92148 3.01664 7.26226 3.01664C9.60303 3.01664 11.5037 4.91411 11.5037 7.251C11.5037 9.58788 9.60303 11.4854 7.26226 11.4854C4.92148 11.4854 3.02084 9.58788 3.02084 7.251Z" fill="#C8C9CC"/>
</svg>
