<svg width="20" height="20" viewBox="0 0 20 20" fill="none" xmlns="http://www.w3.org/2000/svg">
<g id="search_wh_20">
<path id="Union" fill-rule="evenodd" clip-rule="evenodd" d="M13.1939 14.276C12.1228 15.115 10.7736 15.6151 9.30756 15.6151C5.82399 15.6151 3 12.7911 3 9.30756C3 5.82399 5.82399 3 9.30756 3C12.7911 3 15.6151 5.82399 15.6151 9.30756C15.6151 10.7736 15.115 12.1228 14.276 13.1939L16.7759 15.6939C17.0747 15.9927 17.0747 16.4771 16.7759 16.7759C16.4771 17.0747 15.9927 17.0747 15.6939 16.7759L13.1939 14.276ZM4.53022 9.30756C4.53022 6.66911 6.66911 4.53022 9.30756 4.53022C11.946 4.53022 14.0849 6.66911 14.0849 9.30756C14.0849 10.5909 13.5789 11.7561 12.7554 12.6144C12.7293 12.6345 12.7043 12.6565 12.6804 12.6804C12.6565 12.7043 12.6345 12.7293 12.6144 12.7554C11.7561 13.5789 10.5909 14.0849 9.30756 14.0849C6.66911 14.0849 4.53022 11.946 4.53022 9.30756Z" fill="white"/>
</g>
</svg>
