<svg width="20" height="20" viewBox="0 0 20 20" fill="none" xmlns="http://www.w3.org/2000/svg">
<g id="setting_fill_fff_24">
<path id="&#237;&#140;&#168;&#236;&#138;&#164; 88732" d="M15.5792 10.7342C15.6108 10.4907 15.6264 10.2455 15.6259 10C15.6276 9.75419 15.6092 9.50864 15.5709 9.26584L17.1542 8.03084C17.2225 7.97464 17.2692 7.89651 17.2863 7.80975C17.3035 7.723 17.2901 7.63297 17.2484 7.555L15.7509 4.96084C15.7067 4.88237 15.6362 4.82207 15.5519 4.79065C15.4675 4.75922 15.3747 4.7587 15.29 4.78917L13.4225 5.53917C13.0351 5.23931 12.6094 4.99242 12.1567 4.805L11.8759 2.82C11.8619 2.73065 11.8164 2.64924 11.7476 2.59054C11.6788 2.53184 11.5913 2.49972 11.5009 2.5H8.50086C8.41129 2.49996 8.32472 2.53234 8.25717 2.59117C8.18962 2.64999 8.14564 2.73127 8.13336 2.82L7.85253 4.805C7.39968 4.99364 6.97332 5.24044 6.58419 5.53917L4.71753 4.78917C4.63283 4.75705 4.53936 4.75675 4.45446 4.78832C4.36956 4.81989 4.299 4.88119 4.25586 4.96084L2.76669 7.555C2.71882 7.63131 2.70182 7.723 2.71916 7.8114C2.7365 7.8998 2.78687 7.97827 2.86003 8.03084L4.44336 9.26584C4.40151 9.50839 4.37894 9.75388 4.37586 10C4.37438 10.2458 4.39277 10.4913 4.43086 10.7342L2.84753 11.9683C2.77917 12.0247 2.73244 12.1029 2.71528 12.1898C2.69811 12.2767 2.71157 12.3669 2.75336 12.445L4.25336 15.0392C4.29749 15.1176 4.36799 15.1779 4.45235 15.2094C4.53671 15.2408 4.62948 15.2413 4.71419 15.2108L6.58169 14.4608C6.96916 14.7607 7.39485 15.0076 7.84753 15.195L8.12836 17.18C8.14333 17.2684 8.18877 17.3488 8.2568 17.4073C8.32484 17.4657 8.41118 17.4985 8.50086 17.5H11.5009C11.5908 17.5013 11.678 17.4694 11.7458 17.4103C11.8136 17.3513 11.8573 17.2692 11.8684 17.18L12.1492 15.195C12.6026 15.0091 13.0285 14.7621 13.415 14.4608L15.2817 15.2108C15.3664 15.2429 15.4599 15.2432 15.5448 15.2117C15.6297 15.1801 15.7002 15.1188 15.7434 15.0392L17.2434 12.445C17.2895 12.368 17.3054 12.2766 17.288 12.1886C17.2706 12.1005 17.2211 12.022 17.1492 11.9683L15.5792 10.7342ZM10.0009 13C9.40752 13 8.8275 12.8241 8.33415 12.4944C7.8408 12.1648 7.45628 11.6962 7.22922 11.1481C7.00216 10.5999 6.94275 9.99667 7.0585 9.41473C7.17426 8.83279 7.45998 8.29824 7.87954 7.87868C8.2991 7.45912 8.83365 7.1734 9.41559 7.05765C9.99753 6.94189 10.6007 7.0013 11.1489 7.22836C11.6971 7.45543 12.1656 7.83994 12.4953 8.33329C12.8249 8.82664 13.0009 9.40666 13.0009 10C12.9984 10.7949 12.6816 11.5566 12.1195 12.1187C11.5574 12.6807 10.7958 12.9976 10.0009 13Z" fill="white" fill-opacity="0.87"/>
</g>
</svg>
