<svg width="20" height="20" viewBox="0 0 20 20" fill="none" xmlns="http://www.w3.org/2000/svg">
<g id="setting_fill_bk_24">
<path id="&#237;&#140;&#168;&#236;&#138;&#164; 88732" d="M15.5797 10.7342C15.6113 10.4907 15.6269 10.2455 15.6263 10C15.6281 9.75419 15.6097 9.50865 15.5713 9.26584L17.1547 8.03084C17.223 7.97464 17.2697 7.89651 17.2868 7.80975C17.304 7.723 17.2906 7.63297 17.2488 7.555L15.7513 4.96084C15.7072 4.88237 15.6367 4.82207 15.5524 4.79065C15.468 4.75922 15.3752 4.7587 15.2905 4.78917L13.423 5.53917C13.0355 5.23931 12.6099 4.99242 12.1572 4.805L11.8763 2.82C11.8624 2.73065 11.8169 2.64924 11.7481 2.59054C11.6793 2.53184 11.5918 2.49972 11.5013 2.5H8.50135C8.41177 2.49996 8.32521 2.53234 8.25766 2.59117C8.19011 2.64999 8.14613 2.73127 8.13385 2.82L7.85301 4.805C7.40017 4.99364 6.9738 5.24044 6.58468 5.53917L4.71801 4.78917C4.63332 4.75705 4.53985 4.75675 4.45495 4.78832C4.37005 4.81989 4.29949 4.88119 4.25635 4.96084L2.76718 7.555C2.71931 7.63131 2.70231 7.723 2.71965 7.8114C2.73699 7.8998 2.78736 7.97827 2.86051 8.03084L4.44385 9.26584C4.402 9.50839 4.37943 9.75388 4.37635 10C4.37487 10.2458 4.39326 10.4913 4.43135 10.7342L2.84801 11.9683C2.77966 12.0247 2.73293 12.1029 2.71576 12.1898C2.6986 12.2767 2.71205 12.3669 2.75385 12.445L4.25385 15.0392C4.29798 15.1176 4.36848 15.1779 4.45284 15.2094C4.5372 15.2408 4.62997 15.2413 4.71468 15.2108L6.58218 14.4608C6.96965 14.7607 7.39534 15.0076 7.84801 15.195L8.12885 17.18C8.14382 17.2684 8.18926 17.3488 8.25729 17.4073C8.32533 17.4657 8.41167 17.4985 8.50135 17.5H11.5013C11.5913 17.5013 11.6785 17.4694 11.7463 17.4103C11.8141 17.3513 11.8578 17.2692 11.8688 17.18L12.1497 15.195C12.6031 15.0091 13.029 14.7621 13.4155 14.4608L15.2822 15.2108C15.3669 15.2429 15.4603 15.2432 15.5452 15.2117C15.6301 15.1801 15.7007 15.1188 15.7438 15.0392L17.2438 12.445C17.2899 12.368 17.3058 12.2766 17.2884 12.1886C17.271 12.1005 17.2216 12.022 17.1497 11.9683L15.5797 10.7342ZM10.0013 13C9.408 13 8.82798 12.8241 8.33464 12.4944C7.84129 12.1648 7.45677 11.6962 7.22971 11.1481C7.00265 10.5999 6.94324 9.99667 7.05899 9.41473C7.17475 8.83279 7.46047 8.29824 7.88003 7.87868C8.29958 7.45912 8.83413 7.1734 9.41608 7.05765C9.99802 6.94189 10.6012 7.0013 11.1494 7.22836C11.6976 7.45543 12.1661 7.83994 12.4958 8.33329C12.8254 8.82664 13.0013 9.40666 13.0013 10C12.9989 10.7949 12.6821 11.5566 12.12 12.1187C11.5579 12.6807 10.7963 12.9976 10.0013 13Z" fill="#C8C9CC"/>
</g>
</svg>
