<svg width="20" height="20" viewBox="0 0 20 20" fill="none" xmlns="http://www.w3.org/2000/svg">
<g id="pie_chart_24">
<path id="Icon" d="M16.2734 8.33325C16.4126 8.33325 16.4822 8.33325 16.5379 8.30317C16.5844 8.27804 16.6266 8.23226 16.648 8.18388C16.6735 8.12596 16.6683 8.06166 16.658 7.93307C16.6163 7.41255 16.4933 6.90091 16.2929 6.41695C16.0412 5.8094 15.6724 5.25738 15.2074 4.79238C14.7424 4.32739 14.1904 3.95854 13.5828 3.70688C13.0988 3.50642 12.5872 3.38345 12.0667 3.34172C11.9381 3.33141 11.8738 3.32626 11.8159 3.35179C11.7675 3.37312 11.7217 3.41538 11.6966 3.4619C11.6665 3.5176 11.6665 3.58717 11.6665 3.72631V7.93265C11.6665 8.07287 11.6665 8.14298 11.6938 8.19654C11.7178 8.24366 11.7561 8.28196 11.8032 8.30596C11.8568 8.33325 11.9269 8.33325 12.0671 8.33325H16.2734Z" fill="#C8C9CC" stroke="#C8C9CC" stroke-width="2" stroke-linecap="round" stroke-linejoin="round"/>
<g id="Subtract">
<path fill-rule="evenodd" clip-rule="evenodd" d="M8.66679 3.31665C5.62382 3.93436 3.3335 6.62469 3.3335 9.84995C3.3335 13.5319 6.31826 16.5166 10.0002 16.5166C13.1781 16.5166 15.8368 14.293 16.505 11.3167C16.5034 11.3167 16.5017 11.3167 16.5001 11.3167H10.1668C9.33837 11.3167 8.66679 10.6451 8.66679 9.81668V3.31665Z" fill="#C8C9CC"/>
<path d="M8.66679 3.31665H9.66679C9.66679 3.01655 9.53202 2.73232 9.29967 2.5424C9.06732 2.35247 8.76196 2.27694 8.46786 2.33664L8.66679 3.31665ZM16.505 11.3167L17.4807 11.5357C17.5473 11.2389 17.4752 10.9279 17.2848 10.6906C17.0943 10.4534 16.8062 10.3158 16.502 10.3167L16.505 11.3167ZM4.3335 9.84995C4.3335 7.10964 6.27963 4.82163 8.86573 4.29666L8.46786 2.33664C4.96802 3.04709 2.3335 6.13974 2.3335 9.84995H4.3335ZM10.0002 15.5166C6.87055 15.5166 4.3335 12.9796 4.3335 9.84995H2.3335C2.3335 14.0841 5.76598 17.5166 10.0002 17.5166V15.5166ZM15.5293 11.0976C14.9613 13.6273 12.7002 15.5166 10.0002 15.5166V17.5166C13.6561 17.5166 16.7122 14.9586 17.4807 11.5357L15.5293 11.0976ZM16.502 10.3167C16.5012 10.3167 16.5006 10.3167 16.5001 10.3167V12.3167C16.5029 12.3167 16.5055 12.3167 16.5079 12.3167L16.502 10.3167ZM16.5001 10.3167H10.1668V12.3167H16.5001V10.3167ZM10.1668 10.3167C9.89065 10.3167 9.66679 10.0928 9.66679 9.81668H7.66679C7.66679 11.1974 8.78608 12.3167 10.1668 12.3167V10.3167ZM9.66679 9.81668V3.31665H7.66679V9.81668H9.66679Z" fill="#C8C9CC"/>
</g>
</g>
</svg>
