<svg width="16" height="16" viewBox="0 0 16 16" fill="none" xmlns="http://www.w3.org/2000/svg">
<g id="trash_bk_16">
<path id="Union" fill-rule="evenodd" clip-rule="evenodd" d="M5 3C5 2.44772 5.44772 2 6 2H10C10.5523 2 11 2.44772 11 3H12H13.8C13.9105 3 14 3.08954 14 3.2V3.8C14 3.91046 13.9105 4 13.8 4H13V13C13 13.5523 12.5523 14 12 14H4C3.44772 14 3 13.5523 3 13V4L2.2 4C2.08954 4 2 3.91046 2 3.8V3.2C2 3.08954 2.08954 3 2.2 3H4H5ZM4 4V13H12V4H4ZM6.5 5.5C6.22386 5.5 6 5.72386 6 6V11C6 11.2761 6.22386 11.5 6.5 11.5C6.77614 11.5 7 11.2761 7 11V6C7 5.72386 6.77614 5.5 6.5 5.5ZM9 6C9 5.72386 9.22386 5.5 9.5 5.5C9.77614 5.5 10 5.72386 10 6V11C10 11.2761 9.77614 11.5 9.5 11.5C9.22386 11.5 9 11.2761 9 11V6Z" fill="white" fill-opacity="0.87"/>
</g>
</svg>
