<svg width="24" height="24" viewBox="0 0 24 24" fill="none" xmlns="http://www.w3.org/2000/svg">
<path fill-rule="evenodd" clip-rule="evenodd" d="M7.875 5.25C7.875 4.69772 8.32272 4.25 8.875 4.25H15.125C15.6773 4.25 16.125 4.69772 16.125 5.25V5.625H17.875H20.05C20.1605 5.625 20.25 5.71454 20.25 5.825V6.8C20.25 6.91046 20.1605 7 20.05 7H18.875V19.75C18.875 20.3023 18.4273 20.75 17.875 20.75H6.125C5.57272 20.75 5.125 20.3023 5.125 19.75V7H3.95C3.83954 7 3.75 6.91046 3.75 6.8V5.825C3.75 5.71454 3.83954 5.625 3.95 5.625H6.125H7.875V5.25ZM6.5 7V19.375H17.5V7H6.5ZM9.9375 9.0625C9.5578 9.0625 9.25 9.3703 9.25 9.75V16.625C9.25 17.0047 9.5578 17.3125 9.9375 17.3125C10.3172 17.3125 10.625 17.0047 10.625 16.625V9.75C10.625 9.3703 10.3172 9.0625 9.9375 9.0625ZM13.375 9.75C13.375 9.3703 13.6828 9.0625 14.0625 9.0625C14.4422 9.0625 14.75 9.3703 14.75 9.75V16.625C14.75 17.0047 14.4422 17.3125 14.0625 17.3125C13.6828 17.3125 13.375 17.0047 13.375 16.625V9.75Z" fill="#F13138"/>
</svg>
