<svg width="16" height="16" viewBox="0 0 16 16" fill="none" xmlns="http://www.w3.org/2000/svg">
<g id="write_pri_16">
<g id="Vector">
<path d="M13.6839 2.54467C13.4555 2.30022 13.1443 2.15974 12.8176 2.15362C12.491 2.14749 12.1752 2.27621 11.9385 2.51194L7.00019 7.41885L6.52606 9.31812C6.51554 9.3606 6.51571 9.40521 6.52655 9.4476C6.53738 9.48999 6.55852 9.52872 6.5879 9.56003C6.61727 9.59133 6.65389 9.61414 6.69418 9.62623C6.73448 9.63832 6.77708 9.63929 6.81783 9.62903L8.70813 9.14903L13.6527 4.24867L13.6621 4.23885C13.8747 4.01447 13.9958 3.71243 13.9999 3.39639C14.004 3.08035 13.8907 2.77499 13.6839 2.54467Z" fill="white"/>
<path d="M12.9416 8.54545C12.8034 8.54545 12.6709 8.60292 12.5732 8.70521C12.4755 8.80751 12.4206 8.94625 12.4206 9.09091V12.0364C12.4206 12.2678 12.3327 12.4898 12.1764 12.6535C12.0201 12.8171 11.808 12.9091 11.5869 12.9091H3.8757C3.65461 12.9091 3.44257 12.8171 3.28623 12.6535C3.12989 12.4898 3.04206 12.2678 3.04206 12.0364V3.96364C3.04206 3.73217 3.12989 3.51019 3.28623 3.34652C3.44257 3.18286 3.65461 3.09091 3.8757 3.09091H7.73131C7.8695 3.09091 8.00202 3.03344 8.09974 2.93115C8.19745 2.82886 8.25234 2.69012 8.25234 2.54545C8.25234 2.40079 8.19745 2.26205 8.09974 2.15976C8.00202 2.05747 7.8695 2 7.73131 2H3.8757C3.37824 2 2.90114 2.20688 2.54938 2.57514C2.19762 2.94339 2 3.44285 2 3.96364V12.0364C2 12.2942 2.04852 12.5496 2.14278 12.7878C2.23704 13.0261 2.37521 13.2425 2.54938 13.4249C2.72356 13.6072 2.93033 13.7518 3.1579 13.8505C3.38547 13.9492 3.62938 14 3.8757 14H11.5869C11.8332 14 12.0772 13.9492 12.3047 13.8505C12.5323 13.7518 12.7391 13.6072 12.9132 13.4249C13.0874 13.2425 13.2256 13.0261 13.3198 12.7878C13.4141 12.5496 13.4626 12.2942 13.4626 12.0364V9.09091C13.4626 8.94625 13.4077 8.80751 13.31 8.70521C13.2123 8.60292 13.0798 8.54545 12.9416 8.54545Z" fill="white"/>
</g>
</g>
</svg>
